<svg width="574" height="553" viewBox="0 0 574 553" fill="none" xmlns="http://www.w3.org/2000/svg">
<path fill-rule="evenodd" clip-rule="evenodd" d="M470.736 156.302C491.033 173.303 482.538 207.704 480.616 234.11C478.786 259.255 463.737 280.94 459.853 305.85C454.451 340.497 476.343 383.115 453.269 409.519C431.613 434.299 389.578 426.927 356.823 423.746C328.415 420.987 306.614 389.359 278.248 392.523C231.602 397.725 196.135 456.582 150.234 446.787C112.18 438.667 94.2601 389.314 85.523 351.397C77.1011 314.848 93.7069 278.011 102.968 241.666C110.487 212.157 115.073 180.375 134.973 157.326C153.826 135.49 186.786 133.731 210.428 117.199C231.823 102.238 242.763 73.6957 267.305 64.793C292.135 55.7859 324.381 52.315 345.476 68.2096C368.89 85.8516 354.483 131.684 378.463 148.548C404.032 166.529 446.774 136.231 470.736 156.302Z" fill="#C6B9CF"/>
<path fill-rule="evenodd" clip-rule="evenodd" d="M278.434 289.655C276.927 261.815 251.127 237.774 278.111 216.834C278.111 216.834 256.918 222.788 262.307 260.858C266.553 290.858 227.779 319.172 227.779 319.172L233.411 341.302C233.411 341.302 280.459 325.962 278.434 289.655Z" fill="#C0C8E2"/>
<path fill-rule="evenodd" clip-rule="evenodd" d="M397.163 254.842L402.586 271.152C402.586 271.152 385.672 282.466 364.011 286.935C317.769 296.493 281.198 285.209 243.409 261.303C280.941 279.201 307.11 283.564 349.27 273.119C377.415 266.132 397.163 254.842 397.163 254.842Z" fill="#C0C8E2"/>
<path fill-rule="evenodd" clip-rule="evenodd" d="M389.862 254.513L324.025 207.188L389.862 254.513Z" fill="#FCFCFC"/>
<path fill-rule="evenodd" clip-rule="evenodd" d="M321.166 207.513C320.471 206.525 320.395 205.431 321.031 204.7C321.904 203.697 323.843 203.781 325.354 204.883L391.712 253.16C393.224 254.262 393.773 255.99 392.9 256.992C392.017 258.02 390.078 257.936 388.567 256.833L322.175 208.54C321.766 208.241 321.422 207.884 321.166 207.513Z" fill="#8E97BA"/>
<path fill-rule="evenodd" clip-rule="evenodd" d="M369.751 269.856L298.74 215.255L369.751 269.856Z" fill="#FCFCFC"/>
<path fill-rule="evenodd" clip-rule="evenodd" d="M295.897 215.597C295.209 214.573 295.109 213.425 295.827 212.695C296.771 211.717 298.732 211.869 300.229 213.034L371.672 268.554C373.169 269.718 373.609 271.437 372.664 272.416C371.73 273.369 369.759 273.241 368.261 272.077L296.819 216.557C296.442 216.272 296.13 215.929 295.897 215.597Z" fill="#8E97BA"/>
<path fill-rule="evenodd" clip-rule="evenodd" d="M346.354 279.018L287.55 230.987L346.354 279.018Z" fill="#FCFCFC"/>
<path fill-rule="evenodd" clip-rule="evenodd" d="M284.717 231.394C283.956 230.322 283.912 229.126 284.701 228.423C285.675 227.475 287.67 227.673 289.12 228.885L348.381 277.741C349.842 278.927 350.229 280.701 349.221 281.631C348.247 282.578 346.218 282.363 344.768 281.151L285.541 232.313C285.207 232.017 284.917 231.713 284.717 231.394Z" fill="#8E97BA"/>
<path fill-rule="evenodd" clip-rule="evenodd" d="M325.473 287.291L268.769 240.045L325.473 287.291Z" fill="#FCFCFC"/>
<path fill-rule="evenodd" clip-rule="evenodd" d="M265.904 240.45C265.187 239.366 265.142 238.166 265.944 237.435C266.953 236.502 268.93 236.751 270.383 237.968L327.498 285.996C328.94 287.238 329.304 288.975 328.294 289.908C327.284 290.841 325.263 290.6 323.81 289.383L266.706 241.329C266.395 241.076 266.115 240.745 265.904 240.45Z" fill="#8E97BA"/>
<path fill-rule="evenodd" clip-rule="evenodd" d="M270.439 280.29L232.396 270.589L270.439 280.29Z" fill="#FCFCFC"/>
<path fill-rule="evenodd" clip-rule="evenodd" d="M229.53 271.273C229.165 270.739 228.946 270.156 228.964 269.603C228.945 268.125 230.369 267.304 232.146 267.759L270.642 277.75C272.418 278.205 273.863 279.769 273.882 281.247C273.9 282.725 272.466 283.573 270.7 283.092L232.193 273.126C231.1 272.839 230.108 272.104 229.53 271.273Z" fill="#8E97BA"/>
<path fill-rule="evenodd" clip-rule="evenodd" d="M265.788 299.245L213.064 267.012L265.788 299.245Z" fill="#FCFCFC"/>
<path fill-rule="evenodd" clip-rule="evenodd" d="M210.146 267.216C209.536 266.351 209.42 265.379 209.885 264.67C210.626 263.6 212.499 263.509 214.072 264.506L267.401 297.893C268.985 298.865 269.695 300.547 268.954 301.618C268.246 302.705 266.35 302.754 264.766 301.782L211.438 268.395C210.887 268.06 210.456 267.637 210.146 267.216Z" fill="#8E97BA"/>
<path fill-rule="evenodd" clip-rule="evenodd" d="M242.174 327.731L170.87 276.082L242.174 327.731Z" fill="#FCFCFC"/>
<path fill-rule="evenodd" clip-rule="evenodd" d="M167.985 276.365C167.312 275.419 167.237 274.325 167.873 273.594C168.746 272.591 170.685 272.675 172.196 273.778L244.047 326.428C245.525 327.513 246.064 329.266 245.157 330.252C244.284 331.254 242.345 331.17 240.833 330.068L169.027 277.41C168.584 277.093 168.274 276.754 167.985 276.365Z" fill="#8E97BA"/>
<path fill-rule="evenodd" clip-rule="evenodd" d="M259.168 315.773L188.867 264.834L259.168 315.773Z" fill="#FCFCFC"/>
<path fill-rule="evenodd" clip-rule="evenodd" d="M185.986 265.115C185.324 264.144 185.248 263.05 185.874 262.343C186.757 261.316 188.697 261.4 190.198 262.527L261.053 314.437C262.555 315.564 263.071 317.276 262.164 318.261C261.291 319.264 259.351 319.18 257.84 318.077L187.029 266.16C186.585 265.844 186.241 265.487 185.986 265.115Z" fill="#8E97BA"/>
<path fill-rule="evenodd" clip-rule="evenodd" d="M299.984 220.712C323.14 214.866 342.366 214.653 347.5 214.39L338.715 193.866C338.715 193.866 253.38 190.89 266.687 257.373C266.864 249.483 270.195 228.239 299.984 220.712Z" fill="#9BA7D3"/>
<path fill-rule="evenodd" clip-rule="evenodd" d="M293.122 288.936L268.826 258.508L293.122 288.936Z" fill="#FCFCFC"/>
<path fill-rule="evenodd" clip-rule="evenodd" d="M266.001 259.199C265.067 257.781 265.304 256.23 266.579 255.625C267.994 254.996 270.073 255.707 271.278 257.203L295.694 287.913C296.888 289.436 296.749 291.171 295.334 291.801C293.955 292.449 291.876 291.738 290.671 290.242L266.23 259.485L266.001 259.199Z" fill="#8E97BA"/>
<path fill-rule="evenodd" clip-rule="evenodd" d="M206.069 277.842C237.335 276.734 251.319 293.951 283.994 302.32C262.679 296.859 244.791 278.517 224.165 270.04C201.092 260.569 176.192 258.535 157.907 266.081C158.495 272.541 160.629 279.43 162.119 286.047C162.119 286.047 171.263 279.088 206.069 277.842Z" fill="#9BA7D3"/>
<path fill-rule="evenodd" clip-rule="evenodd" d="M221.716 324.284L196.701 308.814C194.199 306.839 191.895 304.601 189.723 302.099L214.738 317.569C216.845 320.071 219.215 322.309 221.716 324.284Z" fill="#2A76BB"/>
<path fill-rule="evenodd" clip-rule="evenodd" d="M221.716 324.284L221.585 324.218L221.519 324.086L221.387 324.021L221.256 323.955L221.124 323.823L221.058 323.757L220.927 323.626L220.795 323.56L220.663 323.428L220.597 323.362L220.466 323.231L220.334 323.165L220.202 323.033L220.137 322.967L220.005 322.836L219.873 322.77L219.742 322.638L219.676 322.572L219.544 322.441L219.412 322.375L219.347 322.243L219.215 322.177L219.083 322.046L218.952 321.98L218.886 321.848L218.754 321.717L218.622 321.651L218.557 321.519L218.425 321.453L218.293 321.322L218.227 321.256L218.096 321.124L217.964 320.992L217.898 320.927L217.767 320.795L217.635 320.729L217.569 320.597L217.438 320.466L217.306 320.4L217.24 320.268L217.108 320.137L217.043 320.071L216.911 319.939L216.779 319.873L216.713 319.742L216.582 319.61L216.516 319.544L216.384 319.412L216.253 319.281L216.187 319.215L216.055 319.083L215.989 318.952L215.858 318.82L215.726 318.754L215.66 318.623L215.528 318.491L215.463 318.425L215.331 318.293L215.265 318.162L215.133 318.03L215.068 317.964L214.936 317.833L214.804 317.701L214.738 317.569L189.723 302.099C191.895 304.601 194.199 306.839 196.701 308.814L221.716 324.284Z" fill="#2A76BB"/>
<path fill-rule="evenodd" clip-rule="evenodd" d="M214.738 317.572L189.723 302.101L189.855 301.838L214.87 317.308L214.804 317.44V317.506H214.738V317.572Z" fill="#2A76BB"/>
<path fill-rule="evenodd" clip-rule="evenodd" d="M203.219 296.835L178.203 281.365C177.677 279.653 177.216 277.876 176.755 276.098C176.36 274.321 176.031 272.478 175.768 270.635L200.783 286.105C201.046 287.948 201.376 289.725 201.771 291.569C202.166 293.346 202.692 295.123 203.219 296.835Z" fill="#2A76BB"/>
<path fill-rule="evenodd" clip-rule="evenodd" d="M203.219 296.835L178.203 281.365C177.677 279.653 177.216 277.876 176.755 276.098C176.36 274.321 176.031 272.478 175.768 270.635L200.783 286.105C201.046 287.948 201.376 289.725 201.771 291.569V291.634L201.836 291.7V291.832V291.898L201.902 291.964V292.095V292.161V292.227L201.968 292.293V292.424V292.49L202.034 292.556V292.688V292.753L202.1 292.819V292.885V293.017L202.166 293.083V293.148V293.214L202.231 293.346V293.412V293.478L202.297 293.543V293.675V293.741L202.363 293.807V293.873V294.004L202.429 294.07V294.136V294.202L202.495 294.333V294.399V294.465L202.561 294.531V294.663V294.728L202.626 294.794V294.86L202.692 294.992V295.058V295.123L202.758 295.189V295.321V295.387L202.824 295.453V295.518V295.65L202.89 295.716V295.782L202.956 295.847V295.913V296.045L203.021 296.111V296.177L203.087 296.242V296.374V296.44L203.153 296.506V296.572V296.637L203.219 296.769V296.835Z" fill="#2A76BB"/>
<path fill-rule="evenodd" clip-rule="evenodd" d="M157.401 316.648C156.611 320.4 157.664 325.733 158.718 329.353C161.022 337.253 171.62 341.005 178.664 342.322C178.664 342.322 192.752 343.967 192.16 324.745L157.401 316.648Z" fill="#3C4252"/>
<path fill-rule="evenodd" clip-rule="evenodd" d="M151.805 285.775C151.805 285.775 156.479 291.239 165.696 304.405L164.116 307.104C164.116 307.104 148.316 299.204 143.247 290.251L151.805 285.775Z" fill="#F4B892"/>
<path fill-rule="evenodd" clip-rule="evenodd" d="M154.504 282.549C154.504 282.549 150.291 290.777 145.88 291.238C145.88 291.238 143.379 291.37 142.918 289.527C142.918 289.527 141.14 287.288 145.88 276.361L154.504 282.549Z" fill="#F4B892"/>
<path fill-rule="evenodd" clip-rule="evenodd" d="M163.457 250.623C163.457 250.623 158.19 249.965 155.491 255.231L144.432 277.153C144.432 277.153 145.617 283.012 156.479 284.131L166.485 264.053C166.485 264.053 169.71 253.388 163.457 250.623Z" fill="#323643"/>
<path fill-rule="evenodd" clip-rule="evenodd" d="M144.432 277.151L144.892 276.361L144.432 277.151Z" fill="#BDBFC1"/>
<path fill-rule="evenodd" clip-rule="evenodd" d="M156.479 284.128C155.491 284.063 154.635 283.931 153.845 283.733C148.184 282.614 145.88 279.981 144.958 278.467C144.563 277.677 144.432 277.15 144.432 277.15L144.892 276.36C145.617 279.06 147.723 280.574 150.356 281.759C151.146 282.088 152.2 282.417 153.187 282.417C153.78 282.417 154.306 282.285 154.767 282.022C156.676 280.639 156.215 276.36 156.347 274.32C156.544 271.028 156.742 267.671 156.742 264.314C156.808 261.22 156.61 257.994 157.729 255.097C158.585 252.991 160.165 251.608 162.14 250.621C162.403 250.621 162.667 250.621 162.798 250.621C163.127 250.621 163.391 250.621 163.391 250.621H163.457C163.457 250.621 163.457 250.687 163.522 250.687C160.165 251.016 159.902 254.9 159.441 258.06C159.441 258.06 158.256 268.527 157.269 282.549L156.479 284.128Z" fill="#2E313B"/>
<path fill-rule="evenodd" clip-rule="evenodd" d="M199.137 415.001L198.676 420.729C199.071 421.914 202.955 422.374 202.955 422.374C204.93 422.309 213.356 418.622 216.121 417.371C219.808 415.66 221.058 413.158 220.071 410.262C219.61 409.208 215.594 409.34 208.024 412.368C208.024 412.368 203.482 414.606 199.137 415.001Z" fill="#2C2E38"/>
<path fill-rule="evenodd" clip-rule="evenodd" d="M202.955 421.121C204.93 421.055 213.356 417.303 216.121 416.052C218.688 414.867 220.137 413.287 220.334 411.444C220.663 413.814 219.281 415.855 216.121 417.369C213.356 418.619 204.93 422.306 202.955 422.372C202.955 422.372 199.071 421.911 198.676 420.726L198.742 419.607C199.466 420.66 202.955 421.121 202.955 421.121Z" fill="#272830"/>
<path fill-rule="evenodd" clip-rule="evenodd" d="M146.737 424.612L146.276 430.339C146.671 431.524 150.555 432.051 150.555 432.051C152.53 431.919 160.956 428.233 163.721 426.982C167.473 425.27 168.658 422.769 167.671 419.872C167.21 418.819 163.26 418.951 155.624 421.979C155.624 421.979 151.081 424.217 146.737 424.612Z" fill="#2C2E38"/>
<path fill-rule="evenodd" clip-rule="evenodd" d="M150.555 430.732C152.53 430.666 160.956 426.979 163.721 425.663C166.354 424.478 167.736 422.898 168 421.055C168.263 423.424 166.946 425.531 163.721 426.979C160.956 428.23 152.53 431.917 150.555 432.048C150.555 432.048 146.671 431.522 146.276 430.337L146.342 429.218C147.066 430.271 150.555 430.732 150.555 430.732Z" fill="#272830"/>
<path fill-rule="evenodd" clip-rule="evenodd" d="M191.961 329.751L212.171 364.641L209.406 416.252C209.406 416.252 205.654 420.004 198.873 417.898L196.174 365.168L167.999 338.836L191.961 329.751Z" fill="#3C4252"/>
<path fill-rule="evenodd" clip-rule="evenodd" d="M172.608 370.431L155.953 425.597C155.953 425.597 150.489 429.02 146.671 425.794L157.73 364.835L157.203 321.124L180.442 328.497L172.608 370.431Z" fill="#3C4252"/>
<path fill-rule="evenodd" clip-rule="evenodd" d="M186.498 249.241L183.667 262.144L174.649 257.338L176.755 246.411L186.498 249.241Z" fill="#F4B892"/>
<path fill-rule="evenodd" clip-rule="evenodd" d="M183.403 252.664C173.463 250.097 171.356 249.307 167.143 241.934C164.049 236.602 165.234 227.78 169.052 222.448C170.896 219.881 174.648 217.511 177.874 217.247C184.391 216.655 192.29 219.749 195.714 225.542C197.82 229.031 194.265 231.269 197.557 237.128C197.557 237.128 200.585 239.432 198.083 241.144C198.083 241.144 196.438 241.736 195.648 242.987C195.648 242.987 195.319 245.489 194.726 248.846C194.134 252.401 193.673 254.244 188.275 253.454C188.275 253.454 183.996 252.862 183.403 252.664Z" fill="#F4B892"/>
<path fill-rule="evenodd" clip-rule="evenodd" d="M155.887 327.447C154.899 298.745 159.442 258.061 159.442 258.061C159.968 254.441 160.231 249.899 165.037 250.754C168.46 251.281 173.068 253.124 175.175 253.848C175.899 255.626 178.993 256.811 178.993 256.811C183.14 258.72 184.589 258.127 184.589 258.127C186.432 259.115 192.159 262.34 193.739 263.657C195.385 265.039 196.438 267.146 195.911 270.767L195.122 335.28C195.122 335.28 177.413 343.114 155.887 327.447Z" fill="#323643"/>
<path fill-rule="evenodd" clip-rule="evenodd" d="M183.733 337.255C182.219 337.255 180.639 337.189 178.861 336.991C180.507 337.189 182.087 337.255 183.535 337.255C190.645 337.255 195.122 335.28 195.122 335.28C195.122 335.28 190.777 337.255 183.733 337.255Z" fill="#343946"/>
<path fill-rule="evenodd" clip-rule="evenodd" d="M178.861 336.991C178.663 336.925 178.4 336.925 178.203 336.859C178.4 336.925 178.663 336.925 178.861 336.991Z" fill="#343946"/>
<path fill-rule="evenodd" clip-rule="evenodd" d="M193.739 263.657C193.015 263.065 191.435 262.077 189.79 261.09C191.435 262.077 193.015 263.065 193.739 263.657ZM185.313 258.523C185.116 258.457 184.918 258.325 184.721 258.259C184.918 258.325 185.116 258.457 185.313 258.523Z" fill="#24496F"/>
<path fill-rule="evenodd" clip-rule="evenodd" d="M183.535 337.256C182.087 337.256 180.507 337.19 178.861 336.992C178.664 336.926 178.4 336.926 178.203 336.861C176.82 336.663 175.438 336.4 173.99 336.005C174.714 335.939 175.504 335.807 176.294 335.61C179.19 334.951 182.153 333.767 184.325 331.594C186.629 329.29 187.88 326.328 188.604 323.234C190.25 316.058 190.184 308.027 188.933 300.851C187.814 294.268 187.09 287.949 186.497 281.3C185.905 274.519 188.275 262.143 184.72 258.259C184.918 258.325 185.115 258.457 185.312 258.523C186.432 259.181 188.143 260.103 189.789 261.09C191.435 262.077 193.015 263.065 193.739 263.657C195.121 264.776 196.043 266.422 196.043 268.924C196.043 269.516 195.977 270.109 195.911 270.767L195.779 283.011L195.648 292.162L195.516 305.328V305.723L195.45 307.829L195.121 335.281C195.121 335.281 190.645 337.256 183.535 337.256Z" fill="#2E313B"/>
<path fill-rule="evenodd" clip-rule="evenodd" d="M201.441 292.228L204.14 310.528C204.14 310.528 204.6 315.531 200.782 316.914C200.782 316.914 197.03 317.77 194.923 311.845L190.974 294.202L201.441 292.228Z" fill="#F4B892"/>
<path fill-rule="evenodd" clip-rule="evenodd" d="M194.858 264.84C194.858 264.84 200.19 266.947 200.782 275.768L203.35 294.332C203.35 294.332 196.569 300.257 189.855 296.439L188.275 273.925C188.275 273.925 188.275 265.828 194.858 264.84Z" fill="#323643"/>
<path fill-rule="evenodd" clip-rule="evenodd" d="M201.902 308.291C201.902 308.291 211.25 311.385 228.3 321.589L227.181 325.67C227.181 325.67 203.351 320.075 196.768 315.203L201.902 308.291Z" fill="#F4B892"/>
<path fill-rule="evenodd" clip-rule="evenodd" d="M233.631 326.591C234.092 326.13 235.541 327.117 236.594 325.472C234.948 324.287 233.961 323.694 233.434 323.497C232.71 323.233 232.447 323.563 231.788 323.958C231.262 324.353 230.801 324.879 230.274 325.208C229.682 325.537 227.97 324.945 227.18 324.879L226.719 325.603C226.719 325.603 229.287 327.842 231.525 329.158L233.631 326.591Z" fill="#F6B791"/>
<path fill-rule="evenodd" clip-rule="evenodd" d="M236.067 322.704C234.883 322.243 232.578 321.387 232.315 321.453L229.616 321.782L227.905 321.519C227.575 323.296 227.18 324.876 227.18 324.876C229.419 325.6 229.945 325.798 229.945 325.798C229.945 325.798 231.13 326.127 232.776 324.35L233.566 323.625C233.566 323.625 235.607 324.284 236.067 322.704Z" fill="#F6B791"/>
<path fill-rule="evenodd" clip-rule="evenodd" d="M230.867 328.829C230.209 328.434 230.736 327.907 230.736 327.907C231.131 327.249 231.657 327.644 231.657 327.644L231.328 327.446C231.131 327.117 231.592 326.722 231.592 326.722C232.052 326.195 232.579 326.59 232.579 326.59L232.052 326.261C231.855 325.932 232.25 325.471 232.25 325.471C232.777 324.879 233.237 325.274 233.237 325.274L233.501 325.405C233.501 325.405 233.896 323.76 235.805 324.945L236.595 325.471C236.595 325.471 236.595 326.327 235.278 326.59C235.278 326.59 235.212 327.775 234.159 327.775C234.159 327.775 233.962 328.631 233.106 328.697C233.106 328.697 232.777 329.619 232.184 329.487L230.867 328.829Z" fill="#F6B791"/>
<path fill-rule="evenodd" clip-rule="evenodd" d="M171.094 248.582C162.207 239.892 164.511 229.03 164.511 229.03C165.037 226.134 166.156 222.776 167.934 220.472C169.25 218.892 170.962 217.641 172.937 216.72C175.044 215.667 177.348 215.074 179.388 214.745C181.692 214.416 183.996 214.613 186.235 215.14C187.551 215.469 190.711 217.378 191.962 217.181C194.529 216.654 193.739 215.074 193.739 215.074C198.874 218.102 198.479 221.394 198.479 221.394C199.269 226.989 193.213 227.121 193.213 227.121C193.213 227.121 188.341 226.792 189.263 232.058C189.263 232.058 185.576 233.836 186.301 238.839L185.313 239.036C184.984 237.851 184.194 234.757 183.009 234.626C179.849 234.231 179.981 234.955 179.454 235.942C179.454 235.942 178.269 239.3 183.799 243.184L180.244 251.873L175.504 252.861L171.094 248.582Z" fill="#67462E"/>
<path fill-rule="evenodd" clip-rule="evenodd" d="M195.649 226.529C188.473 227.713 180.968 227.648 173.661 226.989C170.567 226.66 167.407 225.409 166.815 223.105C166.683 222.71 166.881 222.315 167.012 221.92C167.276 221.46 167.605 220.933 167.934 220.472C169.251 218.892 170.962 217.641 172.937 216.72C175.044 215.667 177.348 215.074 179.388 214.745C181.693 214.416 183.997 214.613 186.235 215.14C187.551 215.469 190.711 217.378 191.962 217.181C194.529 216.654 193.739 215.074 193.739 215.074C198.874 218.102 198.479 221.394 198.479 221.394C198.94 224.488 197.228 225.936 195.649 226.529Z" fill="#5D402B"/>
<path fill-rule="evenodd" clip-rule="evenodd" d="M183.865 240.551C182.548 241.209 180.705 240.353 179.849 238.51C178.927 236.733 179.322 234.758 180.639 234.1C182.021 233.441 183.799 234.363 184.72 236.14C185.576 237.918 185.181 239.893 183.865 240.551Z" fill="#F4B892"/>
<path fill-rule="evenodd" clip-rule="evenodd" d="M183.667 238.641C183.206 238.509 183.272 238.312 183.206 237.917C183.206 237.654 183.075 237.456 182.877 237.193C182.68 236.995 182.482 236.995 182.285 237.061C182.153 236.995 181.956 237.061 181.758 237.061C181.231 237.127 181.034 236.929 181.1 236.337C181.231 235.679 181.956 235.35 182.614 235.284C182.877 235.218 183.009 235.02 182.614 234.889C181.429 234.428 180.507 235.481 180.441 236.666C180.441 237.061 180.639 237.522 181.034 237.654H181.166C181.363 238.049 181.692 238.246 181.956 238.575L182.087 238.707C182.153 238.839 182.219 239.036 182.285 239.102C182.614 239.497 183.141 239.168 183.47 239.234C183.93 239.365 184.062 238.707 183.667 238.641Z" fill="#DE9881"/>
<path fill-rule="evenodd" clip-rule="evenodd" d="M459.514 120.147C459.317 122.978 459.251 125.874 458.988 128.705C458.658 132.786 459.317 136.407 459.843 140.423C460.238 143.583 461.226 146.874 462.674 149.771C463.201 150.89 463.727 151.943 464.32 152.93C464.847 153.72 466.031 154.576 466.031 155.366C460.963 157.67 455.104 156.025 452.997 150.561C450.891 145.294 450.825 139.172 450.298 133.642C450.035 131.009 450.101 128.244 449.64 125.611C449.179 123.044 448.455 120.41 448.389 117.711C448.191 114.025 447.994 102.636 454.774 106.652C459.119 109.219 459.712 115.671 459.514 120.147Z" fill="#63372D"/>
<path fill-rule="evenodd" clip-rule="evenodd" d="M439.107 322.115C437.527 325.473 442.135 324.288 442.135 324.288C445.426 323.761 448.652 314.084 448.652 314.084C450.364 311.122 449.376 309.41 449.376 309.41L448.455 305.724L443.452 306.579L444.373 311.648C444.373 311.648 442.53 316.191 439.107 322.115Z" fill="#F6B791"/>
<path fill-rule="evenodd" clip-rule="evenodd" d="M450.759 322.838L449.903 322.509L448.52 317.111L449.705 316.914L450.759 322.838Z" fill="#3F3D3E"/>
<path fill-rule="evenodd" clip-rule="evenodd" d="M448.849 307.234C451.746 309.604 450.495 312.5 450.627 315.331C450.758 317.108 451.285 320.4 451.548 322.243L450.693 322.77C450.298 320.268 449.968 319.61 449.442 317.174C448.849 317.503 448.389 318.886 447.994 319.544C446.94 321.387 446.677 323.165 446.019 325.008C445.36 326.588 443.583 327.115 441.937 327.378C440.226 327.641 437.79 327.641 436.21 326.983C433.906 325.995 436.342 324.811 437.263 323.757L440.028 320.4C438.448 323.033 440.291 323.494 440.291 323.494C442.135 324.284 444.439 321.322 445.031 320.202C449.113 313.224 449.705 310.657 448.849 307.234Z" fill="#354148"/>
<path fill-rule="evenodd" clip-rule="evenodd" d="M417.251 317.504C415.737 320.861 420.279 319.676 420.279 319.676C423.571 319.084 426.796 309.407 426.796 309.407C428.574 306.51 427.586 304.799 427.586 304.799L426.665 301.046L421.662 301.902L422.517 307.037C422.517 307.037 420.674 311.579 417.251 317.504Z" fill="#F6B791"/>
<path fill-rule="evenodd" clip-rule="evenodd" d="M428.903 318.23L428.048 317.901L426.731 312.502L427.916 312.305L428.903 318.23Z" fill="#3F3D3E"/>
<path fill-rule="evenodd" clip-rule="evenodd" d="M427.06 302.63C429.89 305 428.639 307.896 428.837 310.661C428.903 312.504 429.429 315.796 429.759 317.573L428.903 318.166C428.442 315.664 428.179 315.006 427.586 312.57C426.994 312.899 426.533 314.282 426.204 314.94C425.15 316.783 424.887 318.561 424.163 320.404C423.57 321.984 421.793 322.51 420.081 322.774C418.436 323.037 415.934 323.037 414.354 322.313C412.116 321.391 414.486 320.14 415.408 319.153L418.238 315.796C416.658 318.429 418.502 318.89 418.502 318.89C420.345 319.68 422.583 316.651 423.241 315.598C427.257 308.62 427.915 306.053 427.06 302.63Z" fill="#354148"/>
<path fill-rule="evenodd" clip-rule="evenodd" d="M430.351 146.216L425.809 171.627C425.809 171.627 425.941 175.906 422.188 180.382L405.007 206.451L401.123 204.476L416.79 173.602L419.226 145.097C419.226 145.097 418.831 136.539 425.414 137.527C425.414 137.527 431.734 137.724 430.351 146.216Z" fill="#F4B892"/>
<path fill-rule="evenodd" clip-rule="evenodd" d="M442.662 144.567L433.314 140.091C433.314 140.091 422.057 153.586 433.314 158.194C433.314 158.194 445.888 157.009 442.662 144.567Z" fill="#F4B892"/>
<path fill-rule="evenodd" clip-rule="evenodd" d="M419.687 191.175L418.107 246.538L421.136 305.259C421.136 305.259 424.098 307.036 429.759 305.259L433.117 247.723L441.345 198.811L419.687 191.175Z" fill="#2F3C57"/>
<path fill-rule="evenodd" clip-rule="evenodd" d="M433.313 246.87C433.313 246.804 433.313 246.739 433.313 246.673L434.433 239.76C434.433 239.958 434.498 240.221 434.498 240.419L433.313 246.87Z" fill="#D2D3D5"/>
<path fill-rule="evenodd" clip-rule="evenodd" d="M433.314 246.673C433.248 245.093 433.643 243.645 433.445 242.131C432.392 233.507 432.919 222.711 430.68 217.708C429.035 214.087 430.285 216.128 425.809 206.648L432.524 207.833L434.433 239.761L433.314 246.673Z" fill="#2C374F"/>
<path fill-rule="evenodd" clip-rule="evenodd" d="M442.793 311.118C447.072 313.62 451.022 309.933 451.022 309.933C450.956 307.3 451.022 305.654 450.825 302.429C450.166 290.513 450.035 282.548 449.706 266.485C449.376 248.119 451.878 230.279 454.445 212.241C457.079 200.787 452.602 192.031 452.602 192.031H431.536L434.433 239.758C434.63 243.971 434.96 247.592 435.025 251.739C435.091 256.742 435.815 260.297 436.408 265.234L442.793 311.118Z" fill="#2F3C57"/>
<path fill-rule="evenodd" clip-rule="evenodd" d="M433.313 149.573H442.661V130.746H433.313V149.573Z" fill="#F4B892"/>
<path fill-rule="evenodd" clip-rule="evenodd" d="M433.313 140.752V140.094V130.746H442.661V136.407C442.661 136.407 441.016 137.526 433.313 140.752Z" fill="#F0A37A"/>
<path fill-rule="evenodd" clip-rule="evenodd" d="M447.204 132.127C453.919 127.453 456.815 108.494 444.176 103.688C434.96 100.199 424.69 107.506 426.731 117.512C427.192 119.751 426.007 121.857 425.809 124.03C425.414 127.453 426.073 130.744 428.113 135.484C429.628 139.105 435.421 136.801 438.515 136.011C441.609 135.221 444.571 133.97 447.204 132.127Z" fill="#F4B892"/>
<path fill-rule="evenodd" clip-rule="evenodd" d="M452.602 192.032C452.602 192.032 437 200.195 419.687 191.176L424.229 172.349L420.477 165.766C417.185 160.236 420.477 152.205 420.543 152.139C421.004 150.954 420.674 149.308 420.674 148.057C420.609 146.148 420.609 144.239 421.004 142.396C421.464 140.289 422.32 137.459 424.953 137.525C427.784 137.525 430.746 138.907 433.314 140.092C427.192 151.415 431.273 155.299 431.273 155.299C439.963 158.195 442.662 144.568 442.662 144.568C445.492 145.753 449.376 148.123 452.207 150.23C454.511 152.007 453.655 153.85 453.326 157.8C452.931 162.869 448.718 168.86 447.862 177.549C447.862 177.549 446.809 181.499 448.718 184.264L452.602 192.032Z" fill="#00BAC7"/>
<path fill-rule="evenodd" clip-rule="evenodd" d="M424.164 172.282L421.201 167.016L424.164 172.282Z" fill="#DEA887"/>
<path fill-rule="evenodd" clip-rule="evenodd" d="M441.938 195.06C443.386 193.743 444.439 192.032 444.768 189.793C445.229 186.436 444.176 181.565 441.674 179.129C438.646 176.298 433.972 175.772 430.22 174.784C428.113 174.257 425.875 173.599 424.164 172.283L421.201 167.016C422.913 167.872 424.493 168.925 426.336 169.583C428.838 170.571 431.537 171.163 434.104 172.085C435.816 172.677 437.856 173.27 439.831 173.27C442.135 173.27 444.242 172.48 445.427 170.044C447.402 165.765 444.044 161.552 442.925 157.602C442.069 154.772 441.872 150.756 445.032 149.242C446.414 148.584 447.928 148.386 449.508 148.32C450.43 148.979 451.352 149.637 452.141 150.229H452.207C453.392 151.151 453.787 152.138 453.787 153.455C453.787 154.574 453.524 155.957 453.326 157.8C452.931 162.869 448.718 168.859 447.863 177.549C447.863 177.549 447.533 178.602 447.533 180.05C447.599 181.367 447.797 182.947 448.718 184.264L452.602 192.032C452.602 192.032 448.389 194.204 441.938 195.06Z" fill="#00ABB6"/>
<path fill-rule="evenodd" clip-rule="evenodd" d="M445.229 133.444C444.307 127.387 444.9 130.745 445.558 125.742C445.558 125.742 446.282 123.832 445.097 122.779C444.702 122.384 444.242 122.121 443.978 121.66C441.543 117.315 441.016 110.996 441.016 110.996L451.746 104.544C451.746 104.544 460.765 115.011 452.931 126.531C452.931 126.531 450.759 130.745 445.229 133.444Z" fill="#713E31"/>
<path fill-rule="evenodd" clip-rule="evenodd" d="M439.304 100.134C447.138 99.344 451.746 104.545 451.746 104.545L441.016 110.996C438.317 109.153 437.592 108.034 435.683 107.704C430.483 106.849 428.31 107.375 426.665 114.814L426.796 118.896C426.796 118.896 420.477 101.911 439.304 100.134Z" fill="#713E31"/>
<path fill-rule="evenodd" clip-rule="evenodd" d="M399.28 207.569C399.28 206.911 399.609 206.911 400.333 206.845C400.925 206.713 401.518 206.845 402.11 206.713C402.637 206.647 403.295 205.594 403.822 205.002C404.283 205.265 404.743 205.528 405.27 205.792C404.743 207.174 404.085 211.256 402.374 212.704L399.872 211.914C399.28 211.848 399.082 211.321 398.49 211.058C398.095 210.926 399.214 208.293 399.28 207.569Z" fill="#F6B791"/>
<path fill-rule="evenodd" clip-rule="evenodd" d="M399.214 205.529L401.254 204.41L401.715 203.949C402.242 204.146 402.703 204.344 403.163 204.607C403.427 204.805 403.756 204.936 404.085 205.134C403.032 206.845 402.703 206.977 402.703 206.977C402.703 206.977 402.439 207.899 400.267 207.569H399.279C399.279 207.569 398.292 209.281 397.041 208.425C397.568 207.438 399.016 205.66 399.214 205.529Z" fill="#F6B791"/>
<path fill-rule="evenodd" clip-rule="evenodd" d="M398.622 213.757C398.293 214.086 397.766 213.823 397.766 213.823C397.108 213.494 397.963 212.374 397.963 212.374L397.7 212.901C397.7 212.901 396.252 212.44 397.7 210.663C398.951 209.017 399.28 207.569 399.28 207.569C399.28 207.569 400.333 208.227 400.202 208.951C400.202 208.951 400.992 208.293 400.992 209.478C400.992 209.478 401.716 209.149 401.782 210.005C401.782 210.005 403.296 210.729 403.098 211.453L402.176 213.099C401.584 214.02 400.992 213.559 400.992 213.559C400.333 213.296 401.057 212.506 401.057 212.506L400.267 213.691C399.807 214.218 399.28 213.954 399.28 213.954C398.293 213.757 399.346 212.704 399.346 212.704C399.346 212.704 399.148 213.296 398.622 213.757Z" fill="#F6B791"/>
<path fill-rule="evenodd" clip-rule="evenodd" d="M442.793 126.928C443.978 127.849 445.953 127.454 447.204 125.94C448.521 124.426 448.652 122.385 447.533 121.398C446.414 120.476 444.439 120.871 443.122 122.385C441.806 123.899 441.674 125.94 442.793 126.928Z" fill="#F4B892"/>
<path fill-rule="evenodd" clip-rule="evenodd" d="M443.517 125.082C443.978 125.082 443.978 124.819 444.11 124.49C444.175 124.226 444.373 124.029 444.636 123.897C444.834 123.7 445.031 123.765 445.229 123.831C445.36 123.897 445.558 123.963 445.689 124.029C446.216 124.226 446.414 124.095 446.545 123.502C446.611 122.778 445.953 122.317 445.36 122.054C445.097 121.988 445.031 121.725 445.426 121.659C446.677 121.593 447.335 122.778 447.072 123.897C447.006 124.292 446.743 124.753 446.282 124.753H446.15C445.887 125.082 445.492 125.148 445.163 125.477L445.031 125.543C444.9 125.675 444.834 125.806 444.702 125.872C444.307 126.201 443.912 125.74 443.517 125.74C443.056 125.675 443.056 125.082 443.517 125.082Z" fill="#DE9881"/>
<path fill-rule="evenodd" clip-rule="evenodd" d="M455.762 155.694L461.884 182.882C461.884 182.882 463.793 187.095 461.357 190.387L436.474 204.935L433.511 201.644L453.326 184.857L445.032 158.986C445.032 158.986 441.411 151.218 447.862 149.572C447.862 149.572 453.787 147.334 455.762 155.694Z" fill="#F4B892"/>
<path fill-rule="evenodd" clip-rule="evenodd" d="M430.022 207.765C429.496 207.436 428.377 208.753 426.863 207.502C428.113 205.922 428.969 205 429.43 204.737C430.022 204.276 430.417 204.474 431.142 204.737C431.734 204.935 432.326 205.329 432.919 205.461C433.577 205.659 435.091 204.605 435.815 204.342L436.474 204.935C436.474 204.935 434.631 207.831 432.787 209.674L430.022 207.765Z" fill="#F6B791"/>
<path fill-rule="evenodd" clip-rule="evenodd" d="M426.665 204.674C427.652 203.95 429.627 202.436 429.956 202.436L432.589 202.041L434.235 201.317C435.025 202.963 435.815 204.345 435.815 204.345C433.84 205.662 433.379 205.991 433.379 205.991C433.379 205.991 432.326 206.649 430.285 205.333L429.298 204.938C429.298 204.872 427.455 206.123 426.665 204.674Z" fill="#F6B791"/>
<path fill-rule="evenodd" clip-rule="evenodd" d="M433.314 209.213C433.841 208.62 433.182 208.291 433.182 208.291C432.656 207.765 432.261 208.225 432.261 208.225L432.524 207.962C432.59 207.567 431.997 207.304 431.997 207.304C431.471 206.909 431.076 207.501 431.076 207.501L431.471 207.041C431.602 206.646 431.076 206.316 431.076 206.316C430.417 205.856 430.022 206.448 430.022 206.448L429.891 206.646C429.891 206.646 428.969 205.131 427.521 206.777L426.863 207.501C426.863 207.501 427.126 208.357 428.443 208.225C428.443 208.225 428.837 209.345 429.825 209.081C429.825 209.081 430.286 209.805 431.142 209.674C431.142 209.674 431.668 210.53 432.261 210.2L433.314 209.213Z" fill="#F6B791"/>
</svg>