<svg width="87" height="52" viewBox="0 0 87 52" fill="none" xmlns="http://www.w3.org/2000/svg">
<path d="M18.7397 0.975933C13.9441 1.36145 10.2983 3.12736 6.12995 7.10688C4.16989 8.97228 3.18986 10.2034 2.1445 12.1062C1.33434 13.5736 0.772454 15.0908 0.380442 16.8691C0.0276314 18.4734 -0.116106 22.1918 0.106034 23.9701C0.720186 28.7704 2.71945 32.6256 6.37823 36.0828C8.6911 38.2715 11.2392 39.9379 15.7735 42.2262C16.9495 42.8231 18.2954 43.5444 18.7789 43.8428C19.9418 44.5641 20.4907 44.8128 21.8104 45.2605C23.3654 45.7828 25.2209 46.0564 26.9197 46.0191L28.3178 45.9818L29.0757 46.6409C30.304 47.7104 31.7153 48.2701 33.2572 48.2701C34.6554 48.2701 35.5178 48.4939 37.2949 49.3271C39.5947 50.409 40.6793 50.6826 42.5871 50.6826C44.325 50.6951 45.1352 50.5334 46.5072 49.9116C47.8662 49.3147 49.2905 47.9592 49.9438 46.6534C50.4665 45.6336 50.8193 44.39 50.8193 43.5941C50.8193 42.9723 50.8716 42.9101 51.342 43.0594C51.6687 43.1713 51.734 43.2956 51.9954 44.3651C52.8055 47.7353 55.2229 50.123 58.5681 50.8816C63.808 52.0755 70.825 50.8194 75.3201 47.8721C76.6399 47.0016 76.8881 46.8897 77.1364 46.9767C77.241 47.014 77.6722 47.4617 78.0903 47.984C80.0373 50.3717 82.5331 51.2049 84.65 50.1728C86.1135 49.4639 86.8714 47.7602 86.989 44.9745C87.0543 43.2708 86.8322 41.9028 86.2311 40.1618C85.2641 37.401 83.7092 35.349 81.5531 33.9935C80.952 33.6204 80.4293 33.2225 80.3901 33.1354C80.3509 33.0359 80.4685 32.2152 80.6776 31.3073C81.0043 29.7902 81.0304 29.5041 80.9781 27.4397C80.9389 25.8604 80.8475 24.9277 80.6776 24.2686C79.201 18.4112 75.9212 15.153 70.0933 13.7477C68.486 13.3622 65.6113 13.213 63.8472 13.4368C61.0509 13.7975 59.3391 14.3819 54.2821 16.7448C50.1921 18.6475 49.9046 18.7719 48.7939 19.1698C48.3627 19.319 47.8008 19.5304 47.5526 19.6175C46.2197 20.1025 45.292 20.3264 45.0829 20.202C44.717 19.9781 44.0898 18.548 43.9591 17.6153C43.8807 17.0432 43.9069 16.9438 44.325 16.3468C45.5141 14.668 45.8277 12.3424 45.1874 10.1537C44.913 9.19613 43.9983 7.72868 43.2404 6.99496C42.3257 6.112 41.594 5.68918 40.5356 5.42802C39.6862 5.21661 38.9022 5.30366 38.1443 5.67674C37.6347 5.92546 36.8898 6.79598 36.6285 7.43022L36.4064 7.96497L34.9559 6.65919C32.9697 4.85596 31.7283 3.98545 29.8598 3.12736C26.2271 1.43607 22.3462 0.689907 18.7397 0.975933ZM23.0649 3.01544C26.5015 3.46313 30.3302 5.01764 32.7214 6.94521C34.2503 8.17638 36.6024 10.9247 40.1566 15.6255C43.3058 19.7916 44.2858 22.341 44.2858 26.2583C44.2858 27.4024 43.9853 30.0016 43.8285 30.2378C43.7893 30.3 43.6455 30.7353 43.5148 31.1954C43.1359 32.4888 42.9138 33.0359 42.0513 34.6526C40.0651 38.4207 37.2949 41.1069 33.6361 42.8106C30.4086 44.3154 27.6645 44.6885 24.3585 44.0791C22.4638 43.7309 20.6605 42.9847 16.845 40.9577C12.0232 38.4083 9.7626 36.9284 7.82867 35.0879C5.3982 32.7748 4.11762 30.698 2.95466 27.191C2.28823 25.1888 2.07916 23.796 2.06609 21.5326C2.06609 17.2795 3.39894 13.7228 6.37823 10.0293C8.37749 7.55458 10.7818 5.58969 13.2907 4.3834C14.3753 3.86109 16.1785 3.30146 17.446 3.07762C18.7005 2.86621 21.6798 2.8289 23.0649 3.01544ZM41.4241 7.45509C42.4433 8.07689 43.2274 9.221 43.6978 10.7631C43.9722 11.6709 44.0114 13.2005 43.7762 13.9591C43.5802 14.6431 42.9268 15.439 42.5871 15.439C41.9076 15.439 40.9537 13.0637 40.6401 10.5392C40.5617 9.94229 40.431 9.48216 40.3134 9.3578C40.1174 9.1837 40.0782 9.19613 39.8169 9.44485C39.5817 9.6687 39.5294 9.89255 39.4771 10.8626L39.4118 12.0191L38.9806 11.5341C37.2034 9.58165 37.8307 7.10688 40.1043 7.10688C40.6793 7.10688 40.9537 7.1815 41.4241 7.45509ZM69.4399 15.439C71.8051 15.8867 73.8435 16.894 75.4769 18.4112C78.0772 20.8238 79.1749 23.4975 79.1749 27.3776C79.1749 31.5561 78.3517 33.5707 75.5945 36.0579C74.6406 36.916 71.9619 38.9057 71.0864 39.3907C70.8642 39.5151 70.6813 39.6643 70.6813 39.7141C70.6813 40.4229 73.9873 39.055 77.0972 37.0652C77.9596 36.518 78.9135 35.9833 79.201 35.8838C80.3771 35.4983 81.1611 35.747 82.3371 36.916C84.3102 38.8933 85.3425 41.3681 85.3556 44.1662C85.3687 46.2679 84.9897 47.4866 84.0881 48.2327C82.899 49.2401 81.148 48.7426 79.397 46.9021C78.4431 45.8948 78.4301 45.6585 79.2533 44.4273C79.8805 43.5071 80.1418 42.5495 79.8413 42.3629C79.7498 42.3132 79.4101 42.5744 79.005 42.9972C75.6206 46.5663 71.7789 48.5436 66.6828 49.3395C64.6574 49.6629 60.3844 49.6629 59.1823 49.352C56.4251 48.6307 54.4128 46.9021 53.6549 44.6014C53.2367 43.333 53.2759 41.194 53.7202 39.5648C54.5957 36.4683 56.6473 33.3717 59.3783 31.0338C60.3322 30.2254 60.6066 29.7404 60.1362 29.7404C59.7311 29.7404 57.4313 31.3198 56.3598 32.3147C53.7464 34.7521 52.4135 37.2144 51.525 41.1442C51.4596 41.4676 51.1329 41.5173 50.7409 41.2561C50.5972 41.1567 50.166 40.5597 49.774 39.9131C48.8854 38.4829 47.3435 36.9657 46.0499 36.2444C44.9392 35.6226 44.5994 35.5231 44.3511 35.7097C43.9853 35.9957 44.1551 36.3191 45.0437 37.0403C47.3696 38.9306 48.415 40.3359 48.9246 42.2386C49.5388 44.5641 48.6633 46.7902 46.5333 48.2327C45.3965 49.0162 44.4034 49.2898 42.7831 49.3022C40.3918 49.3022 39.0459 48.8048 37.1512 47.213C35.2303 45.6087 34.6031 45.2605 34.1458 45.5839C33.8975 45.758 33.8975 45.7704 34.1458 46.2181C34.5116 46.8648 34.3287 46.9891 33.2441 46.7902C32.0158 46.5788 31.0619 46.2181 30.6307 45.7828C30.4216 45.5839 30.291 45.3849 30.3302 45.3476C30.3694 45.3103 30.8921 45.161 31.4931 45.0243C32.9828 44.7009 35.3741 43.5568 37.2296 42.3008C39.0851 41.0447 39.4249 40.9079 40.5225 40.8831C41.3196 40.8706 41.4894 40.9204 42.5871 41.4676C43.2535 41.7909 43.8285 42.0396 43.8546 42.0023C43.8938 41.965 43.8807 41.7287 43.8285 41.4676C43.6586 40.5722 42.1559 39.5648 40.9798 39.5648H40.6009L41.019 39.0301C42.3649 37.3388 43.358 35.6973 44.3511 33.5334C45.4488 31.1581 45.9976 27.4024 45.7362 24.0323C45.6578 22.9503 45.6448 22.1793 45.7101 22.1171C45.7754 22.055 46.3765 21.8187 47.056 21.5948C49.3428 20.8238 49.787 20.6497 53.5504 18.8962C58.1892 16.7572 60.1231 16.0235 62.5928 15.5012C64.7096 15.0659 67.3623 15.0411 69.4399 15.439Z" fill="white"/>
<path d="M16.0087 16.3343C17.629 17.9634 18.3085 19.6796 18.0079 21.4455C17.8119 22.5523 17.1063 23.5721 16.0871 24.169C15.5644 24.4799 15.4337 24.3929 15.2639 23.6343C15.0809 22.8881 14.5974 22.2539 13.931 21.9057C13.4737 21.6569 13.1209 21.6072 11.7488 21.5326C9.88022 21.4455 9.23993 21.2092 8.19457 20.2641C7.30601 19.4682 6.79639 18.3241 6.77026 17.0556L6.75719 16.496L6.49585 17.0432C5.77716 18.5231 6.28678 20.5999 7.60655 21.545C8.75645 22.3658 9.69728 22.6518 11.2915 22.6518C12.5459 22.6518 13.343 22.9254 13.7742 23.5223C14.0747 23.9452 14.127 24.1317 14.127 24.853C14.114 26.3204 14.3361 26.4075 16.0479 25.6116C17.5637 24.9152 18.596 23.9327 19.1186 22.6891C19.4584 21.8684 19.4845 21.7191 19.4322 20.4631C19.38 19.2568 19.3277 19.0205 18.9618 18.2868C18.2823 16.9437 16.8711 15.8245 15.486 15.5136C15.1332 15.4265 15.1854 15.5011 16.0087 16.3343Z" fill="white"/>
<path d="M32.434 21.3087C32.238 21.5201 32.1334 21.8435 32.0681 22.4653C32.0158 22.9378 31.8721 23.5596 31.7545 23.8332C31.4539 24.4799 30.7222 25.0892 30.095 25.2012C29.324 25.3255 28.3701 25.7608 28.3048 25.9971C28.1218 26.6935 29.0757 27.2034 30.1864 27.0044C31.663 26.7308 32.7345 26.0344 33.3356 24.9525C33.6231 24.4426 33.8191 22.6145 33.6623 22.0051C33.5708 21.7067 32.9828 21.0351 32.7998 21.0351C32.7476 21.0351 32.5777 21.1595 32.434 21.3087Z" fill="white"/>
<path d="M21.8104 33.0857C21.7451 33.2225 21.6798 33.4463 21.6798 33.5831C21.6798 34.0184 21.144 35.2122 20.7651 35.635C20.4253 36.0081 19.8634 36.2941 18.6482 36.7543C17.7204 37.1025 17.7204 38.0601 18.6351 38.2342C19.2493 38.3461 20.6997 37.973 21.4576 37.488C22.8689 36.605 23.5614 34.9262 23.0518 33.6453C22.9211 33.3095 22.7513 32.9986 22.6729 32.9489C22.3985 32.7748 21.9542 32.8494 21.8104 33.0857Z" fill="white"/>
<path d="M35.9621 33.1975C35.7531 33.3343 35.5701 33.7447 35.4787 34.2919C35.3088 35.3987 34.564 36.5055 33.6623 37.003C33.3487 37.1771 32.6562 37.4258 32.1074 37.5626C30.9313 37.8362 30.8268 37.8859 30.8268 38.1968C30.8268 38.8932 32.8522 39.0176 34.2504 38.4207C35.6485 37.8113 36.4848 36.6921 36.7462 35.0878C36.8638 34.3417 36.8507 34.1676 36.6416 33.7323C36.4064 33.2224 36.1973 33.0607 35.9621 33.1975Z" fill="white"/>
</svg>