<svg width="52" height="43" viewBox="0 0 52 43" fill="none" xmlns="http://www.w3.org/2000/svg">
<path d="M48.9625 2.84591C47.1408 1.02299 44.6692 -0.000841204 42.0922 2.69056e-05C39.5162 -0.00604986 37.0446 1.01745 35.227 2.84276L22.6855 15.3843C20.2041 17.8696 19.2555 21.4997 20.2039 24.8812C20.4816 25.8657 21.5048 26.4386 22.4892 26.1609C23.4737 25.8833 24.0466 24.8601 23.7689 23.8756C23.1843 21.7845 23.7709 19.5405 25.3042 18.0031L37.8457 5.46337C40.1904 3.11806 43.9925 3.11763 46.3378 5.4625C48.6831 7.80726 48.6836 11.6094 46.3388 13.9547L33.7973 26.4961C32.9754 27.3191 31.9317 27.8848 30.7935 28.1241C29.7921 28.3325 29.1494 29.3133 29.3578 30.3146C29.5371 31.1757 30.2972 31.7918 31.1767 31.7891C31.3062 31.7892 31.4353 31.7756 31.5619 31.7484C33.4014 31.3605 35.088 30.4455 36.416 29.1149L48.9576 16.5753C52.7501 12.7853 52.7523 6.63857 48.9625 2.84591Z" fill="#3C4252"/>
<path d="M31.5452 17.766C31.2675 16.7815 30.2444 16.2086 29.2599 16.4863C28.2755 16.7639 27.7025 17.7871 27.9802 18.7716C28.5649 20.8627 27.9783 23.1067 26.445 24.6441L13.9034 37.1857C11.5586 39.531 7.75653 39.5314 5.41123 37.1865C3.06592 34.8418 3.06549 31.0397 5.41025 28.6944L17.9518 16.1509C18.7724 15.3282 19.815 14.7625 20.952 14.523C21.955 14.3224 22.6054 13.3467 22.4048 12.3439C22.2042 11.341 21.2285 10.6904 20.2256 10.8911C20.2134 10.8936 20.2012 10.8961 20.1891 10.8988C18.3493 11.2871 16.6621 12.2021 15.3332 13.5323L2.7916 26.0739C-0.971223 29.8948 -0.924128 36.0425 2.89675 39.8053C6.67596 43.527 12.7423 43.5274 16.5221 39.8062L29.0635 27.2628C31.545 24.7775 32.4936 21.1474 31.5452 17.766Z" fill="#3C4252"/>
</svg>