  
<svg width="28" height="42" viewBox="0 0 28 42" fill="none" xmlns="http://www.w3.org/2000/svg">
<path d="M22.8224 0C22.6535 0 4.56522 0 4.56522 0C4.56522 0 4.56522 0 4.5643 0C3.34539 0 2.19952 0.474783 1.33761 1.3367C0.475696 2.19861 0 3.3463 0 4.56522V6.38948C0 6.39039 0 6.39039 0 6.3913C0 6.39222 0 6.39222 0 6.39313V37.4348C0 39.952 2.04796 42 4.56522 42H22.8261C25.3433 42 27.3913 39.952 27.3913 37.4348V4.56522C27.3913 2.04796 25.3433 0 22.8224 0ZM1.82609 4.56522C1.82609 3.83387 2.11096 3.14543 2.62865 2.62865C3.14543 2.11187 3.83296 1.82609 4.5643 1.82609H13.6947C19.7701 1.82609 21.9642 1.82609 22.8252 1.75578V1.82609C24.3354 1.82609 25.5643 3.05504 25.5643 4.56522V5.47826H1.82609V4.56522ZM25.5652 37.4348C25.5652 38.945 24.3363 40.1739 22.8261 40.1739H4.56522C3.05504 40.1739 1.82609 38.945 1.82609 37.4348V7.30435H25.5652V37.4348Z" fill="#3C4252"/>
</svg>