<svg width="30" height="29" viewBox="0 0 30 29" fill="none" xmlns="http://www.w3.org/2000/svg">
<path d="M25.9573 0H4.04259C1.80997 0 0 1.69373 0 3.78312V24.2914C0 26.3808 1.8099 28.0746 4.04259 28.0746H14.8508L14.8693 18.0422H12.0841C11.7222 18.0422 11.4284 17.7684 11.427 17.4296L11.4136 14.1958C11.4122 13.8552 11.7069 13.5784 12.0708 13.5784H14.8509V10.4537C14.8509 6.82755 17.2175 4.85306 20.6741 4.85306H23.5106C23.8735 4.85306 24.1678 5.12839 24.1678 5.46807V8.19485C24.1678 8.5344 23.8737 8.80966 23.5109 8.80987L21.7702 8.81062C19.8904 8.81062 19.5264 9.64657 19.5264 10.8734V13.5785H23.6571C24.0506 13.5785 24.356 13.9001 24.3096 14.2659L23.9 17.4998C23.8609 17.8092 23.5804 18.0424 23.2475 18.0424H19.5448L19.5264 28.0747H25.9575C28.1901 28.0747 30 26.381 30 24.2917V3.78312C29.9999 1.69373 28.19 0 25.9573 0Z" fill="white"/>
</svg>