<svg width="30" height="29" viewBox="0 0 30 29" fill="none" xmlns="http://www.w3.org/2000/svg">
<path d="M29.9238 8.25407C29.8535 6.76234 29.5956 5.7368 29.2263 4.84815C28.8453 3.90487 28.2591 3.06035 27.4912 2.3583C26.7408 1.64533 25.8323 1.09132 24.8358 0.740398C23.8805 0.394836 22.7902 0.153607 21.1958 0.0878365C19.5896 0.0164961 19.0797 0 15.0058 0C10.932 0 10.4221 0.0164961 8.82179 0.0822664C7.22747 0.148037 6.13138 0.38948 5.18184 0.734828C4.17345 1.09132 3.27085 1.63976 2.52051 2.3583C1.7585 3.06035 1.16661 3.91044 0.791323 4.84279C0.421993 5.7368 0.164172 6.75677 0.0938781 8.2485C0.0176307 9.75136 0 10.2285 0 14.0401C0 17.8518 0.0176307 18.3289 0.0879248 19.8262C0.158219 21.3179 0.416269 22.3435 0.785599 23.2321C1.16661 24.1754 1.7585 25.0199 2.52051 25.722C3.27085 26.4349 4.17941 26.989 5.17589 27.3399C6.13138 27.6854 7.22151 27.9267 8.81607 27.9924C10.4161 28.0584 10.9263 28.0747 15.0001 28.0747C19.074 28.0747 19.5839 28.0584 21.1842 27.9924C22.7785 27.9267 23.8746 27.6854 24.8241 27.3399C26.8407 26.6104 28.435 25.1187 29.2146 23.2321C29.5837 22.3381 29.8418 21.3179 29.9121 19.8262C29.9824 18.3289 30 17.8518 30 14.0401C30 10.2285 29.994 9.75136 29.9238 8.25407ZM27.2217 19.7165C27.1571 21.0876 26.911 21.828 26.7058 22.3216C26.2016 23.5447 25.1641 24.5154 23.8569 24.9871C23.3294 25.1791 22.5323 25.4094 21.0727 25.4696C19.49 25.5356 19.0153 25.5519 15.0118 25.5519C11.0082 25.5519 10.5276 25.5356 8.9507 25.4696C7.48529 25.4094 6.69396 25.1791 6.16642 24.9871C5.51591 24.7622 4.92379 24.4057 4.44318 23.9395C3.94494 23.4843 3.56393 22.9358 3.32351 22.3272C3.11836 21.8336 2.87221 21.0876 2.80787 19.7221C2.73735 18.2413 2.71995 17.797 2.71995 14.0511C2.71995 10.3052 2.73735 9.85548 2.80787 8.38025C2.87221 7.00914 3.11836 6.26875 3.32351 5.77515C3.56393 5.16629 3.94494 4.61249 4.44913 4.1626C4.93547 3.69642 5.52163 3.33993 6.17237 3.1152C6.69992 2.92324 7.49719 2.69294 8.95666 2.63253C10.5393 2.56676 11.0142 2.55026 15.0175 2.55026C19.027 2.55026 19.5017 2.56676 21.0786 2.63253C22.544 2.69294 23.3353 2.92324 23.8629 3.1152C24.5134 3.33993 25.1055 3.69642 25.5861 4.1626C26.0844 4.61785 26.4654 5.16629 26.7058 5.77515C26.911 6.26875 27.1571 7.0145 27.2217 8.38025C27.292 9.86105 27.3096 10.3052 27.3096 14.0511C27.3096 17.797 27.292 18.2357 27.2217 19.7165Z" fill="white"/>
<path d="M15.0058 6.82812C10.7504 6.82812 7.29773 10.0584 7.29773 14.0402C7.29773 18.0219 10.7504 21.2522 15.0058 21.2522C19.2615 21.2522 22.7139 18.0219 22.7139 14.0402C22.7139 10.0584 19.2615 6.82812 15.0058 6.82812ZM15.0058 18.7184C12.2451 18.7184 10.0058 16.6234 10.0058 14.0402C10.0058 11.4569 12.2451 9.36189 15.0058 9.36189C17.7668 9.36189 20.0059 11.4569 20.0059 14.0402C20.0059 16.6234 17.7668 18.7184 15.0058 18.7184Z" fill="white"/>
<path d="M24.8184 6.54297C24.8184 7.4727 24.0127 8.22656 23.0187 8.22656C22.025 8.22656 21.2192 7.4727 21.2192 6.54297C21.2192 5.61302 22.025 4.85938 23.0187 4.85938C24.0127 4.85938 24.8184 5.61302 24.8184 6.54297Z" fill="white"/>
</svg>
