<svg width="210" height="29" viewBox="0 0 210 29" fill="none" xmlns="http://www.w3.org/2000/svg">
<path d="M0.26 15.4C0.26 22.924 5.768 28.216 13.004 28.216C18.584 28.216 23.12 25.264 24.812 20.08H19.016C17.828 22.528 15.668 23.716 12.968 23.716C8.576 23.716 5.444 20.476 5.444 15.4C5.444 10.288 8.576 7.084 12.968 7.084C15.668 7.084 17.828 8.272 19.016 10.684H24.812C23.12 5.536 18.584 2.548 13.004 2.548C5.768 2.548 0.26 7.876 0.26 15.4ZM34.1568 18.064C34.1568 14.212 35.9568 13.06 38.9448 13.06H40.2768V7.768C37.5048 7.768 35.4168 9.1 34.1568 11.152V8.056H29.1168V28H34.1568V18.064ZM52.2395 11.872C54.8315 11.872 56.9195 13.528 56.9915 16.156H47.5235C47.9195 13.42 49.8275 11.872 52.2395 11.872ZM61.7075 21.736H56.2715C55.6235 23.068 54.4355 24.148 52.2755 24.148C49.7555 24.148 47.7395 22.492 47.4875 19.54H62.0675C62.1755 18.892 62.2115 18.244 62.2115 17.596C62.2115 11.656 58.1435 7.732 52.3835 7.732C46.4795 7.732 42.3755 11.728 42.3755 18.028C42.3755 24.292 46.5875 28.324 52.3835 28.324C57.3155 28.324 60.6275 25.408 61.7075 21.736ZM64.5942 17.956C64.5942 24.184 68.6263 28.324 73.6663 28.324C76.8343 28.324 79.1023 26.812 80.2903 25.084V28H85.3663V8.056H80.2903V10.9C79.1023 9.244 76.9063 7.732 73.7023 7.732C68.6263 7.732 64.5942 11.728 64.5942 17.956ZM80.2903 18.028C80.2903 21.808 77.7703 23.896 74.9983 23.896C72.2983 23.896 69.7423 21.736 69.7423 17.956C69.7423 14.176 72.2983 12.16 74.9983 12.16C77.7703 12.16 80.2903 14.248 80.2903 18.028ZM121.064 15.436C121.064 22.96 126.572 28.216 133.592 28.216C139.028 28.216 143.348 25.516 145.22 20.692H141.296C139.928 23.68 137.264 25.372 133.592 25.372C128.336 25.372 124.412 21.556 124.412 15.436C124.412 9.28 128.336 5.464 133.592 5.464C137.264 5.464 139.928 7.156 141.296 10.18H145.22C143.348 5.32 139.028 2.584 133.592 2.584C126.572 2.584 121.064 7.912 121.064 15.436ZM150.096 28H153.372V17.092C153.372 12.844 155.676 10.756 159.024 10.756C162.336 10.756 164.532 12.808 164.532 16.84V28H167.772V16.372C167.772 10.72 164.28 7.912 159.888 7.912C157.116 7.912 154.668 9.028 153.372 11.116V1.36H150.096V28ZM173.124 28H176.4V8.272H173.124V28ZM174.816 5.068C176.004 5.068 176.976 4.096 176.976 2.836C176.976 1.576 176.004 0.603999 174.816 0.603999C173.556 0.603999 172.584 1.576 172.584 2.836C172.584 4.096 173.556 5.068 174.816 5.068ZM181.983 28H185.259V1.36H181.983V28ZM189.618 18.064C189.618 24.184 193.686 28.324 198.978 28.324C202.578 28.324 205.134 26.488 206.322 24.292V28H209.634V1.36H206.322V11.8C204.954 9.532 202.11 7.948 199.014 7.948C193.686 7.948 189.618 11.908 189.618 18.064ZM206.322 18.1C206.322 22.744 203.226 25.444 199.626 25.444C196.026 25.444 192.966 22.708 192.966 18.064C192.966 13.42 196.026 10.792 199.626 10.792C203.226 10.792 206.322 13.528 206.322 18.1Z" fill="white"/>
<path d="M94.1047 14.104C91.5127 15.184 89.8927 17.452 89.8927 20.548C89.8927 25.552 93.9967 28.576 99.3607 28.576C104.761 28.576 108.865 25.552 108.865 20.548C108.865 17.488 107.245 15.22 104.653 14.104C106.705 13.06 108.217 11.08 108.217 8.308C108.217 4.564 105.337 1.252 99.3607 1.252C93.3847 1.252 90.5047 4.528 90.5047 8.308C90.5047 11.152 91.9447 12.988 94.1047 14.104ZM99.3607 12.628C97.0927 12.628 95.4367 11.224 95.4367 9.064C95.4367 6.616 97.0207 5.32 99.3607 5.32C101.773 5.32 103.321 6.652 103.321 9.028C103.321 11.188 101.665 12.628 99.3607 12.628ZM99.3607 16.3C102.061 16.3 103.933 17.74 103.933 20.332C103.933 22.636 102.241 24.4 99.3607 24.4C96.4807 24.4 94.7527 22.672 94.7527 20.332C94.7527 17.668 96.7327 16.3 99.3607 16.3Z" fill="#9BA7D3"/>
</svg>