<svg width="48" height="48" viewBox="0 0 48 48" fill="none" xmlns="http://www.w3.org/2000/svg">
<path d="M42.8119 0H36.0938C35.3171 0 34.6875 0.629625 34.6875 1.40625C34.6875 2.18288 35.3171 2.8125 36.0938 2.8125H42.8119C44.1217 2.8125 45.1875 3.87825 45.1875 5.18822V11.9062C45.1875 12.6829 45.8171 13.3125 46.5938 13.3125C47.3704 13.3125 48 12.6829 48 11.9062V5.18822C48 2.32744 45.6726 0 42.8119 0V0Z" fill="#3C4252"/>
<path d="M1.40625 13.3125C2.18288 13.3125 2.8125 12.6829 2.8125 11.9062V5.18822C2.8125 3.87825 3.87825 2.8125 5.18813 2.8125H11.9062C12.6829 2.8125 13.3125 2.18288 13.3125 1.40625C13.3125 0.629625 12.6829 0 11.9062 0H5.18813C2.32744 0 0 2.32744 0 5.18822V11.9062C0 12.6829 0.629625 13.3125 1.40625 13.3125Z" fill="#3C4252"/>
<path d="M11.9062 45.1875H5.18813C3.87825 45.1875 2.8125 44.1217 2.8125 42.8118V36.0938C2.8125 35.3171 2.18288 34.6875 1.40625 34.6875C0.629625 34.6875 0 35.3171 0 36.0938V42.8118C0 45.6726 2.32744 48 5.18813 48H11.9062C12.6829 48 13.3125 47.3704 13.3125 46.5938C13.3125 45.8171 12.6829 45.1875 11.9062 45.1875Z" fill="#3C4252"/>
<path d="M46.5938 34.6875C45.8171 34.6875 45.1875 35.3171 45.1875 36.0938V42.8118C45.1875 44.1217 44.1217 45.1875 42.8119 45.1875H36.0938C35.3171 45.1875 34.6875 45.8171 34.6875 46.5938C34.6875 47.3704 35.3171 48 36.0938 48H42.8119C45.6727 48 48 45.6726 48 42.8118V36.0938C48 35.3171 47.3704 34.6875 46.5938 34.6875Z" fill="#3C4252"/>
<path d="M32.029 10.3125H36.4892C37.0983 10.3125 37.5938 10.808 37.5938 11.4171V15.8771C37.5938 16.6537 38.2234 17.2834 39 17.2834C39.7766 17.2834 40.4063 16.6537 40.4063 15.8771V11.4171C40.4063 9.25716 38.649 7.5 36.4892 7.5H32.029C31.2524 7.5 30.6228 8.12962 30.6228 8.90625C30.6228 9.68287 31.2524 10.3125 32.029 10.3125Z" fill="#3C4252"/>
<path d="M7.59375 11.4171V15.8771C7.59375 16.6537 8.22337 17.2834 9 17.2834C9.77663 17.2834 10.4062 16.6537 10.4062 15.8771V11.4171C10.4062 10.808 10.9018 10.3125 11.5108 10.3125H15.971C16.7476 10.3125 17.3772 9.68287 17.3772 8.90625C17.3772 8.12962 16.7476 7.5 15.971 7.5H11.5108C9.351 7.5 7.59375 9.25716 7.59375 11.4171Z" fill="#3C4252"/>
<path d="M15.971 37.5H11.5108C10.9017 37.5 10.4062 37.0045 10.4062 36.3954V31.9354C10.4062 31.1587 9.77663 30.5291 9 30.5291C8.22337 30.5291 7.59375 31.1587 7.59375 31.9354V36.3954C7.59375 38.5553 9.351 40.3125 11.5108 40.3125H15.971C16.7476 40.3125 17.3772 39.6829 17.3772 38.9062C17.3772 38.1296 16.7476 37.5 15.971 37.5Z" fill="#3C4252"/>
<path d="M40.4063 36.3954V31.9354C40.4063 31.1587 39.7766 30.5291 39 30.5291C38.2234 30.5291 37.5938 31.1587 37.5938 31.9354V36.3954C37.5938 37.0045 37.0982 37.5 36.4892 37.5H32.029C31.2524 37.5 30.6228 38.1296 30.6228 38.9062C30.6228 39.6829 31.2524 40.3125 32.029 40.3125H36.4892C38.649 40.3125 40.4063 38.5553 40.4063 36.3954Z" fill="#3C4252"/>
<path d="M0.09375 24C0.09375 24.7766 0.723375 25.4062 1.5 25.4062H46.5C47.2766 25.4062 47.9062 24.7766 47.9062 24C47.9062 23.2234 47.2766 22.5938 46.5 22.5938H1.5C0.723375 22.5938 0.09375 23.2234 0.09375 24Z" fill="#3C4252"/>
</svg>