<svg width="237" height="248" viewBox="0 0 237 248" fill="none" xmlns="http://www.w3.org/2000/svg">
<path fill-rule="evenodd" clip-rule="evenodd" d="M230.898 127.46H35.3448V73.0073H227.243L230.898 127.46Z" fill="#A885BC"/>
<path fill-rule="evenodd" clip-rule="evenodd" d="M188.69 145.261C190.517 147.269 190.43 150.323 188.516 152.155L83.6459 214.026C81.6443 215.858 78.5983 215.771 76.7707 213.764C74.9431 211.844 75.0301 208.79 77.0318 206.957L181.901 145.087C183.816 143.254 186.862 143.342 188.69 145.261Z" fill="#9667AA"/>
<path fill-rule="evenodd" clip-rule="evenodd" d="M188.864 150.237L83.9939 212.107C81.9923 213.94 78.9463 213.765 77.1187 211.845C76.5095 211.147 76.1613 210.362 75.9873 209.489C75.6392 210.973 76.0743 212.631 77.1187 213.765C78.9463 215.772 81.9923 215.859 83.9939 214.027L188.864 152.157C190.082 150.935 190.604 149.277 190.256 147.619C190.082 148.579 189.56 149.539 188.864 150.237Z" fill="#DC6CA6"/>
<path fill-rule="evenodd" clip-rule="evenodd" d="M77.3796 209.75L182.249 147.792C184.164 146.047 187.21 146.134 189.037 148.054C189.56 148.665 189.908 149.276 190.169 149.974C190.604 148.403 190.256 146.57 189.037 145.261C187.21 143.342 184.164 143.254 182.249 145.087L77.3796 206.957C75.9871 208.266 75.552 210.186 76.0742 211.844C76.3352 211.059 76.7704 210.273 77.3796 209.75Z" fill="#E17CB1"/>
<path fill-rule="evenodd" clip-rule="evenodd" d="M77.1189 145.261C75.2913 147.269 75.4654 150.323 77.38 152.155L182.25 214.026C184.164 215.858 187.21 215.771 189.038 213.764C190.865 211.844 190.778 208.79 188.864 206.957L83.9942 145.087C81.9925 143.254 78.9465 143.342 77.1189 145.261Z" fill="#9667AA"/>
<path fill-rule="evenodd" clip-rule="evenodd" d="M189.037 211.845C187.21 213.765 184.164 213.94 182.249 212.107L77.3795 150.237C76.5962 149.539 76.1611 148.579 75.987 147.619C75.6389 149.277 76.0741 150.935 77.3795 152.157L182.249 214.027C184.164 215.859 187.21 215.772 189.037 213.765C190.169 212.631 190.604 210.973 190.256 209.489C190.082 210.362 189.734 211.147 189.037 211.845Z" fill="#DC6CA6"/>
<path fill-rule="evenodd" clip-rule="evenodd" d="M76.7706 147.269C78.5982 145.349 81.6442 145.261 83.6459 147.094L188.515 208.964C189.212 209.662 189.734 210.535 189.908 211.495C190.256 209.837 189.734 208.179 188.515 206.957L83.6459 145.087C81.6442 143.254 78.5982 143.342 76.7706 145.261C75.6392 146.483 75.2911 148.141 75.6392 149.625C75.8133 148.752 76.1614 147.967 76.7706 147.269Z" fill="#E17CB1"/>
<path fill-rule="evenodd" clip-rule="evenodd" d="M230.985 136.972C223.936 149.102 178.507 157.566 133.513 157.741C92.8707 157.828 41.8718 144.913 35.4317 136.972C23.5088 122.224 35.4317 73.0073 35.4317 73.0073C52.8375 80.0757 97.9183 97.8776 131.598 97.8776C181.727 97.8776 217.409 78.4177 227.417 73.0073C227.417 73.0073 231.072 84.2644 235.163 97.8776C238.992 110.705 236.468 127.722 230.985 136.972Z" fill="#BDAAD2"/>
<path fill-rule="evenodd" clip-rule="evenodd" d="M236.033 101.63C235.772 100.321 235.511 99.0993 235.163 97.8776C231.073 84.2644 227.853 73.1819 227.853 73.1819C217.844 78.5922 181.727 97.8776 131.599 97.8776C97.9188 97.8776 52.8379 80.0757 35.4322 73.0073C35.4322 73.0073 23.5963 122.224 35.4322 136.972C36.0414 137.757 37.0857 138.543 38.4782 139.415C58.7558 126.849 125.768 92.4672 236.033 101.63Z" fill="#C6B9CF"/>
<path fill-rule="evenodd" clip-rule="evenodd" d="M66.7622 73.0938C64.0643 68.3815 61.2794 63.582 58.4945 58.7825C57.6242 57.1245 55.7966 56.6009 54.1431 55.99C50.923 54.5938 47.79 53.2848 44.5699 51.8886C41.5239 50.6669 38.3909 49.3579 35.2579 48.049C34.3005 47.6127 33.3432 47.2636 32.3859 46.8273C31.4286 46.391 33.6913 47.3509 32.2118 46.74C26.1198 44.0348 19.5057 42.5513 12.9785 43.773C4.18862 45.4311 -0.772018 54.7683 0.0982685 63.1457C1.05558 71.6976 8.71411 78.0679 16.2856 81.0349C22.8998 83.5655 34.9968 85.3108 35.3449 85.5726C35.78 85.9217 36.0411 86.6198 36.3892 87.1434C37.4336 88.6268 38.5649 90.1976 39.6093 91.7684C41.1758 94.0372 42.7423 96.3061 44.3088 98.575C46.9197 102.415 53.2728 98.7495 50.5749 94.9099C47.7029 90.7212 44.744 86.5325 41.872 82.3438C39.0001 78.1551 32.2118 77.9806 27.5993 76.7589C20.8111 75.0136 14.458 73.2683 9.67142 67.7707C6.36433 64.0183 6.71245 58.957 8.97519 54.8556C10.8898 51.2778 14.9802 50.4924 18.7224 50.5796C27.3382 50.7542 36.6503 56.4263 44.4829 59.7424C47.0938 60.7896 49.6176 61.8367 52.2284 62.9712C52.8376 63.233 53.4468 63.4947 54.056 63.7565C53.3598 63.4075 51.5322 61.0513 52.6636 63.1457C55.2744 67.6834 57.8853 72.2212 60.4962 76.7589C62.8459 80.8603 69.112 77.1952 66.7622 73.0938Z" fill="#DC6CA6"/>
<path fill-rule="evenodd" clip-rule="evenodd" d="M41.8721 82.3441C39.0002 78.1554 32.2119 77.9808 27.5994 76.7591C20.8112 75.0139 14.4581 73.2686 9.67152 67.7709C8.36609 66.2874 7.58283 64.5422 7.40877 62.7969C6.97363 65.5893 7.58283 68.5563 9.67152 70.9124C14.4581 76.4101 20.8112 78.1554 27.5994 79.9007C32.2119 81.1224 39.0002 81.2096 41.8721 85.3983C44.7441 89.6743 47.703 93.8629 50.575 98.0516C50.662 98.1389 50.662 98.2261 50.7491 98.4007C51.3583 97.4408 51.4453 96.2191 50.575 94.9101C47.703 90.7214 44.7441 86.5327 41.8721 82.3441Z" fill="#E17CB1"/>
<path fill-rule="evenodd" clip-rule="evenodd" d="M12.9782 46.9145C19.5053 45.6928 26.1195 47.0891 32.2115 49.7943C32.7337 50.0561 32.7337 50.0561 32.7337 50.0561C33.604 50.4051 34.3873 50.7542 35.2575 51.1032C38.3906 52.4122 41.4366 53.7211 44.5696 55.0301C47.7897 56.3391 50.9227 57.7353 54.1428 59.0443C55.7963 59.7424 57.6239 60.266 58.4942 61.8367C61.2791 66.6362 64.064 71.4358 66.7619 76.2353L66.849 76.4971C67.3711 75.5372 67.4582 74.4028 66.7619 73.1811C64.064 68.3815 61.2791 63.582 58.4942 58.7825C57.6239 57.1245 55.7963 56.6009 54.1428 55.99C50.9227 54.5938 47.7897 53.2848 44.5696 51.8886C41.4366 50.6669 38.3906 49.3579 35.2575 48.049C34.3873 47.6999 33.604 47.2636 32.7337 46.9145C32.7337 47.0018 32.7337 46.9145 32.2115 46.74C26.1195 44.0348 19.5053 42.5513 12.9782 43.773C4.36235 45.3438 -0.598285 54.5065 0.0979447 62.7094C0.707146 55.4664 5.4067 48.3108 12.9782 46.9145Z" fill="#E17CB1"/>
<path fill-rule="evenodd" clip-rule="evenodd" d="M138.474 97.8782L220.716 48.4866C209.141 33.2154 196.261 23.7909 180.335 11.8357L138.474 97.8782Z" fill="#EDC3DB"/>
<path fill-rule="evenodd" clip-rule="evenodd" d="M125.768 0.40332L138.474 97.8774L180.335 11.8349C166.497 8.34436 125.768 0.40332 125.768 0.40332Z" fill="#E6A7CB"/>
<path fill-rule="evenodd" clip-rule="evenodd" d="M220.716 48.4856L138.474 97.8771H235.163C229.245 78.2427 226.199 67.5965 220.716 48.4856Z" fill="#E6A7CB"/>
<path fill-rule="evenodd" clip-rule="evenodd" d="M205.138 57.8229C220.542 73.6177 230.376 90.1106 234.554 97.8771H234.989C229.158 78.2427 226.112 67.5965 220.629 48.4856L205.138 57.8229Z" fill="#EBD3E6"/>
<path fill-rule="evenodd" clip-rule="evenodd" d="M180.248 11.8357L170.587 31.5574C184.164 38.6258 195.652 48.1376 205.138 57.8239L220.629 48.4866C209.054 33.2154 196.174 23.7909 180.248 11.8357Z" fill="#ECBED9"/>
<path fill-rule="evenodd" clip-rule="evenodd" d="M180.248 11.8349C166.41 8.34436 125.681 0.40332 125.681 0.40332L128.205 19.8632C144.044 20.6486 158.23 25.0991 170.588 31.5566L180.248 11.8349Z" fill="#EBD3E6"/>
<path fill-rule="evenodd" clip-rule="evenodd" d="M31.6025 127.896C32.3858 131.561 33.6912 134.703 35.5188 136.972C41.8719 144.913 92.9578 157.828 133.513 157.741C178.594 157.566 224.023 149.101 231.072 136.972C232.117 135.139 233.074 133.045 233.944 130.689C157.185 175.193 59.1906 139.59 31.6025 127.896Z" fill="#9667AA"/>
<path fill-rule="evenodd" clip-rule="evenodd" d="M180.422 211.058L180.509 210.796L180.683 210.447L180.77 210.36L179.465 209.487L180.944 210.011L181.031 209.836C181.118 209.749 181.292 209.575 181.379 209.4L181.466 209.313L178.507 205.386L181.901 207.742L182.249 208.615L182.424 208.44C182.598 208.266 182.859 208.091 183.12 207.917L183.294 207.829L182.511 207.219L181.64 204.95L183.642 207.655L183.816 207.568C183.903 207.48 184.077 207.48 184.164 207.393L184.425 207.306L180.596 202.332L173.46 183.657L173.373 183.483L172.676 183.744L178.942 200.15L168.76 186.711L168.151 187.148L179.987 202.681L181.379 206.52L177.028 203.466L165.975 188.893L165.366 189.329L175.026 202.07L160.84 192.384L160.405 192.994L176.506 204.077L180.161 208.877L177.202 207.917L158.839 195.263L158.404 195.961L174.678 207.131L157.011 201.285L156.837 202.07L176.854 208.615L180.422 211.058Z" fill="#E17CB1"/>
<path fill-rule="evenodd" clip-rule="evenodd" d="M184.512 207.306L184.773 207.218C184.86 207.218 185.035 207.131 185.122 207.131H185.296V206.608L185.47 207.044H185.644C185.731 207.044 185.905 206.957 185.992 206.957H186.253L185.296 204.513V181.563H184.512V202.506L176.767 182.348L176.68 182.174L175.984 182.435L184.512 204.688V207.306Z" fill="#E17CB1"/>
<path fill-rule="evenodd" clip-rule="evenodd" d="M184.338 220.484L184.512 220.309L184.251 220.222C184.164 220.222 183.99 220.135 183.903 220.047H183.729L182.858 221.356L183.119 220.396L183.642 219.96L183.38 219.873C183.206 219.786 183.032 219.611 182.858 219.524L182.684 219.437L182.51 219.96L176.766 225.283L180.944 219.262L181.901 218.738L181.727 218.564L181.466 218.302L181.379 218.215L181.205 217.953L181.031 217.691L180.421 218.651L179.203 219.262L180.944 217.604L180.857 217.517L180.77 217.255L180.857 217.08L180.683 217.168L180.509 216.906V216.819L175.548 217.953L179.812 215.771H180.073L179.986 215.51C179.986 215.422 179.986 215.248 179.899 215.161V214.899L179.638 215.073H175.635L179.812 214.113V213.852V213.677V213.328V213.154L179.899 212.805V212.543L178.942 212.281H179.986L180.073 212.019L180.16 211.757V211.496H176.592L155.966 204.689L155.705 205.474L174.155 211.496H154.4V212.281H176.505L179.725 213.328L172.241 215.073H154.4V215.771H168.847L154.139 219.175L154.313 219.96L172.241 215.771H178.072L172.328 218.651L154.922 222.665L155.096 223.451L169.369 220.135L156.837 226.33L157.185 227.029L172.589 219.437L179.638 217.779L176.766 220.396L158.403 229.559L158.751 230.17L174.852 222.229L161.884 234.359L162.407 234.882L177.201 221.095L179.551 219.96L174.242 227.639L164.234 236.977L164.756 237.5L172.241 230.519L166.323 239.158L167.019 239.595L174.765 228.163L181.988 221.444L181.379 223.538L169.282 241.165L169.891 241.602L180.509 226.069L175.2 242.911L175.896 243.172L182.075 223.887L184.338 220.484Z" fill="#E17CB1"/>
<path fill-rule="evenodd" clip-rule="evenodd" d="M219.062 212.282V211.497H206.878L218.192 208.879L218.018 208.181L203.484 211.497H196.609L201.482 209.053L217.322 205.388L217.148 204.69L204.441 207.657L216.712 201.548L216.451 200.85L201.221 208.355L194.433 209.926L197.479 207.133L215.146 198.32L214.885 197.622L199.394 205.301L212.187 193.346L211.665 192.822L197.044 206.435L192.432 208.704L195.826 203.817L209.75 190.728L209.228 190.204L197.74 200.938L206.53 188.11L205.834 187.673L195.216 203.294L191.126 207.133L192.78 201.898L203.571 186.103L202.962 185.666L193.563 199.367L198.959 182.438L198.262 182.263L192.083 201.548L188.863 206.348V202.596L195.565 181.39L194.868 181.129L188.863 200.065V181.565H188.08V202.421L186.601 206.959H186.949C187.036 206.959 187.123 206.959 187.297 206.959H187.384L188.08 204.952V207.133H188.167L188.428 207.221V207.482L188.602 207.221L188.863 207.308L189.037 207.395L191.3 204.079L190.082 207.919H190.169L190.43 208.093L190.343 208.268L190.517 208.181L190.691 208.355L190.865 208.442L193.215 206.173L191.387 208.879L191.474 208.966L191.735 209.228L191.822 209.315L191.996 209.577L192.17 209.751L195.042 208.268L192.954 210.275L192.519 210.362L192.693 210.537C192.78 210.711 192.78 210.886 192.867 211.06L192.954 211.235L193.302 210.973L198.262 209.839L194.868 211.497H193.041L193.128 211.758C193.215 211.846 193.215 211.933 193.215 212.02L193.302 212.282V212.369L193.389 212.718L193.476 213.067L195.042 212.282H200.177L194.433 213.591L193.476 213.242V213.591V213.765V213.94C193.476 214.114 193.476 214.202 193.476 214.376V214.551L194.433 214.376L196.435 215.074H193.824L193.389 214.725V214.987C193.302 215.249 193.302 215.423 193.215 215.598V215.773H193.65L197.044 218.129L192.78 216.82L192.693 216.907C192.693 217.081 192.606 217.169 192.519 217.256L192.432 217.431L199.307 219.699L213.754 229.648L214.189 229.037L201.831 220.572L217.148 225.546L217.409 224.848L199.568 219.001L194.955 215.773H198.785L218.279 222.23L218.54 221.445L201.308 215.773H219.062V215.074H198.959L195.826 214.027L203.571 212.282H219.062Z" fill="#E17CB1"/>
<path fill-rule="evenodd" clip-rule="evenodd" d="M192.257 217.69L192.083 217.865C191.996 218.127 191.822 218.301 191.648 218.476L191.474 218.65L192.606 219.435L207.313 238.808L207.923 238.372L194.607 220.832L211.752 232.612L212.187 232.002L193.128 218.912L192.257 217.69Z" fill="#E17CB1"/>
<path fill-rule="evenodd" clip-rule="evenodd" d="M191.039 219.348L190.865 219.174L190.691 219.348L190.43 219.523L190.256 219.61L191.301 222.403L189.56 220.046H189.386C189.299 220.134 189.125 220.134 189.038 220.221L188.777 220.308L188.603 220.396C188.429 220.396 188.342 220.483 188.168 220.483H188.081V221.617L187.645 220.57H187.558C187.384 220.657 187.21 220.657 187.123 220.657H186.862L188.081 223.799V246.4H188.864V225.719L195.913 244.219L196.696 243.957L188.864 223.624V220.308L192.345 224.933L199.22 242.822L199.307 242.91L200.003 242.648L193.998 227.202L204.442 240.99L205.051 240.554L193.041 224.584L191.039 219.348Z" fill="#E17CB1"/>
<path fill-rule="evenodd" clip-rule="evenodd" d="M186.166 220.657H185.992L185.296 222.926V220.57L185.122 220.483C185.035 220.483 184.86 220.396 184.773 220.396L184.512 220.308V225.282L178.594 243.957L179.291 244.219L184.512 227.813V246.4H185.296V225.457L186.775 220.657H186.514C186.427 220.657 186.253 220.657 186.166 220.657Z" fill="#E17CB1"/>
<path fill-rule="evenodd" clip-rule="evenodd" d="M186.601 182.435C169.369 182.435 155.357 196.485 155.357 213.763C155.357 231.041 169.369 245.091 186.601 245.091C203.832 245.091 217.844 231.041 217.844 213.763C217.844 196.485 203.832 182.435 186.601 182.435ZM186.601 247.883C167.889 247.883 152.572 232.612 152.572 213.763C152.572 195.001 167.889 179.643 186.601 179.643C205.399 179.643 220.629 195.001 220.629 213.763C220.629 232.612 205.399 247.883 186.601 247.883Z" fill="#9667AA"/>
<path fill-rule="evenodd" clip-rule="evenodd" d="M204.529 184.793C213.58 190.901 219.498 201.286 219.498 213.066C219.498 231.828 204.268 247.187 185.47 247.187C178.942 247.187 172.763 245.267 167.629 242.038C173.025 245.79 179.552 247.885 186.601 247.885C205.399 247.885 220.629 232.614 220.629 213.764C220.629 201.547 214.189 190.814 204.529 184.793Z" fill="#DF579F"/>
<path fill-rule="evenodd" clip-rule="evenodd" d="M154.226 213.066C154.226 224.323 160.231 234.271 169.108 239.769C160.84 234.097 155.358 224.585 155.358 213.764C155.358 196.486 169.369 182.436 186.601 182.436C192.606 182.436 198.176 184.182 202.962 187.061C198.002 183.658 191.91 181.738 185.47 181.738C168.238 181.738 154.226 195.788 154.226 213.066Z" fill="#DF579F"/>
<path fill-rule="evenodd" clip-rule="evenodd" d="M193.563 213.939C193.563 217.779 190.517 220.833 186.688 220.833C182.859 220.833 179.726 217.779 179.726 213.939C179.726 210.1 182.859 206.958 186.688 206.958C190.517 206.958 193.563 210.1 193.563 213.939Z" fill="#DF579F"/>
<path fill-rule="evenodd" clip-rule="evenodd" d="M180.074 214.55C180.074 210.798 183.12 207.656 186.949 207.656C189.473 207.656 191.562 208.878 192.78 210.885C191.649 208.529 189.299 206.958 186.601 206.958C182.772 206.958 179.639 210.1 179.639 213.939C179.639 215.335 180.074 216.557 180.77 217.692C180.335 216.732 180.074 215.684 180.074 214.55Z" fill="#A885BC"/>
<path fill-rule="evenodd" clip-rule="evenodd" d="M190.778 213.937C190.778 216.206 188.951 218.039 186.688 218.039C184.338 218.039 182.51 216.206 182.51 213.937C182.51 211.581 184.338 209.749 186.688 209.749C188.951 209.749 190.778 211.581 190.778 213.937Z" fill="#E17CB1"/>
<path fill-rule="evenodd" clip-rule="evenodd" d="M189.56 212.718C189.56 213.765 188.254 214.55 186.688 214.55C185.034 214.55 183.729 213.765 183.729 212.718C183.729 211.671 185.034 210.798 186.688 210.798C188.254 210.798 189.56 211.671 189.56 212.718Z" fill="#ECBDD8"/>
<path fill-rule="evenodd" clip-rule="evenodd" d="M71.2875 211.058L71.4615 210.796L71.6356 210.447V210.36L70.4172 209.487L71.8967 210.011L71.9837 209.836C72.0707 209.749 72.1578 209.575 72.3318 209.4L72.4189 209.313L69.4599 205.386L72.854 207.742L73.1151 208.615L73.3762 208.44C73.5502 208.266 73.8113 208.091 74.0724 207.917L74.2465 207.829L73.4632 207.219L72.5929 204.95L74.5946 207.655L74.7686 207.568C74.8557 207.48 75.0297 207.48 75.1167 207.393L75.3778 207.306L71.5486 202.332L64.3252 183.657V183.483L63.5419 183.744L69.895 200.15L59.7127 186.711L59.1035 187.148L70.9394 202.681L72.3318 206.52L67.9804 203.466L56.9277 188.893L56.3185 189.329L65.9787 202.07L51.793 192.384L51.3579 192.994L67.4582 204.077L71.1134 208.877L68.1544 207.917L49.7914 195.263L49.3562 195.961L65.6306 207.131L47.9638 201.285L47.7027 202.07L67.8063 208.615L71.2875 211.058Z" fill="#E17CB1"/>
<path fill-rule="evenodd" clip-rule="evenodd" d="M75.4649 207.306L75.726 207.218C75.813 207.218 75.9871 207.131 76.0741 207.131H76.2482V206.608L76.4222 207.044H76.5963C76.6833 207.044 76.7703 206.957 76.9444 206.957H77.1184L76.2482 204.513V181.563H75.4649V202.506L67.7194 182.348L67.6323 182.174L66.9361 182.435L75.4649 204.688V207.306Z" fill="#E17CB1"/>
<path fill-rule="evenodd" clip-rule="evenodd" d="M75.2909 220.484L75.3779 220.309L75.2039 220.222C75.1168 220.222 74.9428 220.135 74.8557 220.047H74.6817L73.8114 221.356L74.0725 220.396L74.5947 219.96L74.3336 219.873C74.1595 219.786 73.9855 219.611 73.8114 219.524L73.6373 219.437L73.4633 219.96L67.7194 225.283L71.8097 219.262L72.8541 218.738L72.68 218.564L72.4189 218.302L72.3319 218.215L72.1579 217.953L71.9838 217.691L71.3746 218.651L70.1562 219.262L71.8968 217.604L71.8097 217.517L71.6357 217.255L71.8097 217.08L71.6357 217.168L71.4616 216.906V216.819L66.501 217.953L70.7654 215.771H71.0265L70.9395 215.51C70.9395 215.422 70.9395 215.248 70.8524 215.161V214.899L70.5913 215.073H66.588L70.7654 214.113V213.852V213.677V213.328V213.154L70.8524 212.805V212.543L69.8951 212.281H70.9395V212.019L71.0265 211.757L71.1135 211.496H67.5453L46.8325 204.689L46.6584 205.474L65.1085 211.496H45.353V212.281H67.4583L70.6784 213.328L63.1939 215.073H45.353V215.771H59.7998L45.0919 219.175L45.266 219.96L63.1939 215.771H69.0248L63.2809 218.651L45.8752 222.665L46.0492 223.451L60.3219 220.135L47.7898 226.33L48.1379 227.029L63.542 219.437L70.5913 217.779L67.7194 220.396L49.3563 229.559L49.7044 230.17L65.8048 222.229L52.8375 234.359L53.3596 234.882L68.1545 221.095L70.4173 219.96L65.1956 227.639L55.1873 236.977L55.7094 237.5L63.1939 230.519L57.2759 239.158L57.9722 239.595L65.7177 228.163L72.9411 221.444L72.2449 223.538L60.2349 241.165L60.8441 241.602L71.4616 226.069L66.1529 242.911L66.8491 243.172L72.9411 223.887L75.2909 220.484Z" fill="#E17CB1"/>
<path fill-rule="evenodd" clip-rule="evenodd" d="M110.015 212.282V211.497H97.8314L109.058 208.879L108.884 208.181L94.4373 211.497H87.562L92.3486 209.053L108.275 205.388L108.101 204.69L95.3946 207.657L107.666 201.548L107.318 200.85L92.1745 208.355L85.3863 209.926L88.4323 207.133L106.099 198.32L105.751 197.622L90.3469 205.301L103.14 193.346L102.618 192.822L87.9971 206.435L83.3846 208.704L86.6917 203.817L100.703 190.728L100.181 190.204L88.6934 200.938L97.4833 188.11L96.787 187.673L86.1695 203.294L82.0792 207.133L83.7327 201.898L94.5243 186.103L93.9151 185.666L84.516 199.367L89.9118 182.438L89.2155 182.263L83.0365 201.548L79.7294 206.348V202.596L86.5177 181.39L85.8214 181.129L79.7294 200.065V181.565H79.0332V202.421L77.5537 206.959H77.9018C77.9889 206.959 78.0759 206.959 78.2499 206.959H78.337L79.0332 204.952V207.133H79.1202L79.3813 207.221V207.482L79.5554 207.221L79.8165 207.308L79.9905 207.395L82.1662 204.079L81.0349 207.919H81.1219L81.383 208.093L81.2959 208.268L81.47 208.181L81.6441 208.355L81.8181 208.442L84.1679 206.173L82.3403 208.879L82.4273 208.966L82.6884 209.228V209.315L82.9495 209.577L83.0365 209.751L85.9955 208.268L83.9068 210.275L83.4717 210.362L83.6457 210.537C83.6457 210.711 83.7327 210.886 83.8198 211.06L83.9068 211.235L84.2549 210.973L89.1285 209.839L85.8214 211.497H83.9938L84.0809 211.758C84.1679 211.846 84.1679 211.933 84.1679 212.02L84.2549 212.282V212.369L84.3419 212.718V213.067L85.9955 212.282H91.1302L85.3863 213.591L84.429 213.242V213.591V213.765V213.94C84.429 214.114 84.429 214.202 84.429 214.376L84.3419 214.551L85.2993 214.376L87.3879 215.074H84.7771L84.3419 214.725V214.987C84.2549 215.249 84.2549 215.423 84.1679 215.598L84.0809 215.773H84.516L87.9971 218.129L83.7327 216.82L83.6457 216.907C83.6457 217.081 83.5587 217.169 83.4717 217.256L83.3846 217.431L90.1729 219.699L104.707 229.648L105.142 229.037L92.7837 220.572L108.101 225.546L108.362 224.848L90.521 219.001L85.9085 215.773H89.7377L109.232 222.23L109.493 221.445L92.1745 215.773H110.015V215.074H89.9118L86.7787 214.027L94.5243 212.282H110.015Z" fill="#E17CB1"/>
<path fill-rule="evenodd" clip-rule="evenodd" d="M83.2106 217.69L83.0366 217.865C82.8625 218.127 82.6885 218.301 82.5144 218.476L82.4274 218.65L83.5587 219.435L98.2666 238.808L98.8758 238.372L85.5604 220.832L102.705 232.612L103.14 232.002L84.0809 218.912L83.2106 217.69Z" fill="#E17CB1"/>
<path fill-rule="evenodd" clip-rule="evenodd" d="M81.905 219.348L81.818 219.174L81.644 219.348L81.2958 219.523L81.2088 219.61L82.2532 222.403L80.5126 220.046H80.3385C80.2515 220.134 80.0774 220.134 79.9904 220.221L79.7293 220.308L79.5553 220.396C79.3812 220.396 79.2942 220.483 79.1201 220.483H79.0331V221.617L78.598 220.57H78.4239C78.3369 220.657 78.1628 220.657 78.0758 220.657H77.8147L79.0331 223.799V246.4H79.7293V225.719L86.8657 244.219L87.6489 243.957L79.7293 223.624V220.308L83.2975 224.933L90.1728 242.822V242.91L90.956 242.648L84.951 227.202L95.3945 240.99L96.0037 240.554L83.9937 224.584L81.905 219.348Z" fill="#E17CB1"/>
<path fill-rule="evenodd" clip-rule="evenodd" d="M77.1185 220.657H76.9444L76.2482 222.926V220.57L76.0741 220.483C75.9871 220.483 75.8131 220.396 75.726 220.396L75.4649 220.308V225.282L69.46 243.957L70.2432 244.219L75.4649 227.813V246.4H76.2482V225.457L77.7277 220.657H77.4666C77.3796 220.657 77.2055 220.657 77.1185 220.657Z" fill="#E17CB1"/>
<path fill-rule="evenodd" clip-rule="evenodd" d="M77.5539 182.435C60.3222 182.435 46.3106 196.485 46.3106 213.763C46.3106 231.041 60.3222 245.091 77.5539 245.091C94.7855 245.091 108.797 231.041 108.797 213.763C108.797 196.485 94.7855 182.435 77.5539 182.435ZM77.5539 247.883C58.7557 247.883 43.5256 232.612 43.5256 213.763C43.5256 195.001 58.7557 179.643 77.5539 179.643C96.3521 179.643 111.582 195.001 111.582 213.763C111.582 232.612 96.3521 247.883 77.5539 247.883Z" fill="#9667AA"/>
<path fill-rule="evenodd" clip-rule="evenodd" d="M95.4815 184.793C104.533 190.901 110.45 201.286 110.45 213.066C110.45 231.828 95.2204 247.187 76.4222 247.187C69.8951 247.187 63.716 245.267 58.4943 242.038C63.9771 245.79 70.5043 247.885 77.5536 247.885C96.3518 247.885 111.582 232.614 111.582 213.764C111.582 201.547 105.142 190.814 95.4815 184.793Z" fill="#DF579F"/>
<path fill-rule="evenodd" clip-rule="evenodd" d="M45.179 213.066C45.179 224.323 51.0969 234.271 60.0609 239.769C51.7931 234.097 46.3103 224.585 46.3103 213.764C46.3103 196.486 60.3219 182.436 77.5536 182.436C83.5586 182.436 89.1285 184.182 93.915 187.061C88.8674 183.658 82.8624 181.738 76.4223 181.738C59.1906 181.738 45.179 195.788 45.179 213.066Z" fill="#DF579F"/>
<path fill-rule="evenodd" clip-rule="evenodd" d="M84.5159 213.939C84.5159 217.779 81.3829 220.833 77.6407 220.833C73.8114 220.833 70.6783 217.779 70.6783 213.939C70.6783 210.1 73.8114 206.958 77.6407 206.958C81.3829 206.958 84.5159 210.1 84.5159 213.939Z" fill="#DF579F"/>
<path fill-rule="evenodd" clip-rule="evenodd" d="M71.0264 214.55C71.0264 210.798 74.0724 207.656 77.9017 207.656C80.3385 207.656 82.5142 208.878 83.7326 210.885C82.6012 208.529 80.2514 206.958 77.5536 206.958C73.7243 206.958 70.5912 210.1 70.5912 213.939C70.5912 215.335 71.0264 216.557 71.7226 217.692C71.2875 216.732 71.0264 215.684 71.0264 214.55Z" fill="#A885BC"/>
<path fill-rule="evenodd" clip-rule="evenodd" d="M81.7314 213.937C81.7314 216.206 79.9038 218.039 77.6411 218.039C75.2913 218.039 73.4637 216.206 73.4637 213.937C73.4637 211.581 75.2913 209.749 77.6411 209.749C79.9038 209.749 81.7314 211.581 81.7314 213.937Z" fill="#E17CB1"/>
<path fill-rule="evenodd" clip-rule="evenodd" d="M80.5131 212.718C80.5131 213.765 79.2076 214.55 77.6411 214.55C75.9876 214.55 74.6821 213.765 74.6821 212.718C74.6821 211.671 75.9876 210.798 77.6411 210.798C79.2076 210.798 80.5131 211.671 80.5131 212.718Z" fill="#ECBDD8"/>
<path fill-rule="evenodd" clip-rule="evenodd" d="M53.0118 97.8774C53.0118 101.193 50.314 103.899 47.0069 103.899C43.6998 103.899 41.0019 101.193 41.0019 97.8774C41.0019 94.5614 43.6998 91.8562 47.0069 91.8562C50.314 91.8562 53.0118 94.5614 53.0118 97.8774Z" fill="#9667AA"/>
<path fill-rule="evenodd" clip-rule="evenodd" d="M50.4879 95.5202C50.4879 96.8292 48.9214 97.8763 47.0068 97.8763C45.0922 97.8763 43.5256 96.8292 43.5256 95.5202C43.5256 94.2112 45.0922 93.1641 47.0068 93.1641C48.9214 93.1641 50.4879 94.2112 50.4879 95.5202Z" fill="#E17CB1"/>
<path fill-rule="evenodd" clip-rule="evenodd" d="M66.5013 84.6142C68.5029 83.6543 69.8954 81.56 69.8954 79.2038C69.8954 75.8878 67.1975 73.1826 63.8904 73.1826C60.5833 73.1826 57.8854 75.8878 57.8854 79.2038C57.8854 80.1638 58.1465 81.0364 58.5817 81.909C61.1055 82.7817 63.8034 83.7416 66.5013 84.6142Z" fill="#9667AA"/>
<path fill-rule="evenodd" clip-rule="evenodd" d="M67.3715 76.8466C67.3715 78.1556 65.8049 79.2027 63.8903 79.2027C61.9757 79.2027 60.4092 78.1556 60.4092 76.8466C60.4092 75.5376 61.9757 74.4905 63.8903 74.4905C65.8049 74.4905 67.3715 75.5376 67.3715 76.8466Z" fill="#E17CB1"/>
</svg>