
<svg width="35" height="27" viewBox="0 0 35 27" fill="none" xmlns="http://www.w3.org/2000/svg">
<path d="M31.43 7.38928C31.43 7.09769 31.4183 6.81416 31.4038 6.53466C32.8271 5.60344 34.0244 4.44109 35 3.10272V3.10138C33.6977 3.62678 32.3123 3.97616 30.8656 4.14547C32.3531 3.32713 33.4892 2.04116 34.0229 0.491812C32.636 1.25372 31.1048 1.79122 29.4729 2.09222C28.156 0.799531 26.2792 0 24.2317 0C20.2592 0 17.061 2.97103 17.061 6.61259C17.061 7.13666 17.1092 7.64056 17.2273 8.12028C11.2627 7.85153 5.98354 5.21778 2.43688 1.204C1.81854 2.19434 1.45396 3.32712 1.45396 4.54591C1.45396 6.83566 2.73292 8.86472 4.64188 10.0405C3.48833 10.0203 2.35812 9.71128 1.4 9.22619V9.29875C1.4 12.5117 3.88646 15.1803 7.14875 15.7958C6.05208 16.0726 4.70167 16.0618 3.90979 15.9006C4.83875 18.5182 7.47833 20.4438 10.6138 20.507C8.1725 22.2659 5.07208 23.3262 1.71646 23.3262C1.12875 23.3262 0.564375 23.302 0 23.2361C3.17917 25.1241 6.94458 26.2031 11.0075 26.2031C24.2113 26.2031 31.43 16.125 31.43 7.38928Z" fill="white"/>
</svg>