<svg width="39" height="25" viewBox="0 0 39 25" fill="none" xmlns="http://www.w3.org/2000/svg">
<path d="M37.1684 2.40664C36.1155 0.653881 34.9728 0.331481 32.6461 0.208879C30.3218 0.0613013 24.4773 0 19.4139 0C14.3409 0 8.4939 0.0613015 6.17209 0.206608C3.85028 0.331481 2.70514 0.65161 1.64249 2.40664C0.558011 4.15714 0 7.17225 0 12.4805C0 12.485 0 12.4873 0 12.4873C0 12.4918 0 12.4941 0 12.4941V12.4987C0 17.7842 0.558011 20.822 1.64249 22.5543C2.70514 24.3071 3.84785 24.625 6.16966 24.7725C8.4939 24.8997 14.3409 24.9746 19.4139 24.9746C24.4773 24.9746 30.3218 24.8997 32.6485 24.7748C34.9752 24.6272 36.1179 24.3094 37.1708 22.5566C38.265 20.8243 38.8182 17.7865 38.8182 12.5009C38.8182 12.5009 38.8182 12.4941 38.8182 12.4896C38.8182 12.4896 38.8182 12.485 38.8182 12.4828C38.8182 7.17225 38.265 4.15714 37.1684 2.40664Z" fill="white"/>
<path d="M14.5568 19.2986V5.67627L26.6875 12.4874L14.5568 19.2986Z" fill="#3C4252"/>
</svg>